<?xml version="1.0" encoding="UTF-8" standalone="no"?>
<!DOCTYPE svg PUBLIC "-//W3C//DTD SVG 1.1//EN" "http://www.w3.org/Graphics/SVG/1.1/DTD/svg11.dtd">
<svg xmlns="http://www.w3.org/2000/svg" version="1.1" viewBox="0.00 0.00 1142.00 680.00">
<g stroke-width="2.00" fill="none" stroke-linecap="butt">
<path stroke="#8285a6" vector-effect="non-scaling-stroke" d="
  M 1014.05 81.86
  C 1031.13 65.72 1004.60 52.35 996.69 71.49
  A 0.52 0.52 0.0 0 0 997.53 72.07
  C 998.90 70.81 1000.18 69.15 1001.75 68.28
  C 1014.58 61.17 1020.40 82.41 1004.20 86.03
  A 0.39 0.39 0.0 0 0 1004.26 86.80
  C 1023.56 88.21 1018.72 112.85 1004.64 107.17
  C 1002.28 106.22 998.63 103.79 996.45 105.94
  A 2.13 2.13 0.0 0 0 996.60 109.11
  C 1000.94 112.62 1010.13 110.94 1014.52 108.21
  C 1023.75 102.46 1025.70 87.31 1014.19 82.61
  Q 1013.54 82.35 1014.05 81.86"
/>
<path stroke="#8285a6" vector-effect="non-scaling-stroke" d="
  M 413.55 112.99
  L 417.71 98.74
  Q 417.91 98.06 417.20 98.18
  L 406.38 100.08
  Q 405.81 100.18 406.10 100.69
  Q 406.24 100.92 406.58 100.89
  Q 408.70 100.68 410.04 100.76
  A 1.12 1.11 -15.9 0 1 410.89 101.23
  Q 411.68 102.37 411.20 104.00
  Q 407.48 116.63 403.69 129.29
  A 0.55 0.55 0.0 0 0 404.22 130.00
  L 408.21 130.00
  Q 408.73 130.00 408.85 129.50
  C 411.14 120.42 418.00 106.30 426.93 102.04
  A 1.83 1.82 -16.2 0 1 429.53 103.47
  Q 429.61 104.13 429.21 105.36
  Q 425.77 116.05 422.71 126.86
  C 421.81 130.02 424.45 132.03 427.35 130.27
  Q 431.64 127.65 434.14 123.14
  Q 434.19 123.05 434.11 122.98
  Q 434.01 122.89 433.91 122.76
  A 0.27 0.27 0.0 0 0 433.49 122.74
  L 429.63 127.06
  A 1.02 1.02 0.0 0 1 427.91 126.05
  Q 431.12 116.82 434.26 107.49
  C 436.00 102.30 433.76 94.88 426.70 99.26
  C 421.06 102.75 417.63 108.04 413.88 113.15
  Q 413.25 114.01 413.55 112.99"
/>
<path stroke="#8285a6" vector-effect="non-scaling-stroke" d="
  M 923.77 115.90
  A 1.90 1.90 0.0 0 0 921.87 114.00
  L 848.15 114.00
  A 1.90 1.90 0.0 0 0 846.25 115.90
  L 846.25 117.10
  A 1.90 1.90 0.0 0 0 848.15 119.00
  L 921.87 119.00
  A 1.90 1.90 0.0 0 0 923.77 117.10
  L 923.77 115.90"
/>
<path stroke="#8285a6" vector-effect="non-scaling-stroke" d="
  M 378.48 282.43
  L 432.91 215.33
  Q 433.26 214.91 432.91 214.48
  L 384.07 154.43
  A 0.26 0.26 0.0 0 1 384.26 154.01
  Q 415.34 153.96 446.54 154.03
  C 461.90 154.06 469.52 160.62 470.64 176.40
  Q 470.68 177.00 471.29 177.00
  L 473.62 177.00
  Q 474.24 177.00 474.19 176.38
  L 472.02 147.61
  A 0.65 0.65 0.0 0 0 471.37 147.00
  L 360.25 147.00
  Q 359.75 147.00 359.75 147.50
  L 359.75 149.82
  A 1.13 1.13 0.0 0 0 360.00 150.53
  L 418.16 222.07
  Q 418.49 222.48 418.16 222.90
  L 359.74 295.30
  A 1.66 1.66 0.0 0 0 361.03 298.00
  L 474.54 298.00
  Q 475.10 298.00 475.18 297.45
  L 480.45 262.71
  A 0.59 0.58 -81.7 0 0 479.96 262.04
  L 477.51 261.70
  A 0.69 0.69 0.0 0 0 476.74 262.29
  C 474.61 276.80 464.32 282.92 450.50 282.99
  Q 427.52 283.10 378.73 282.96
  Q 378.06 282.96 378.48 282.43"
/>
<path stroke="#8285a6" vector-effect="non-scaling-stroke" d="
  M 512.66 227.19
  C 513.59 255.87 528.99 282.80 555.00 295.58
  Q 555.65 295.90 555.60 295.18
  L 555.46 293.36
  Q 555.41 292.80 554.94 292.48
  C 540.62 282.87 533.73 270.32 530.36 253.19
  C 525.55 228.78 525.67 198.39 536.24 175.53
  Q 542.17 162.69 554.97 155.30
  Q 555.57 154.96 555.57 154.26
  L 555.57 152.83
  Q 555.57 152.17 554.97 152.44
  C 526.48 165.52 511.68 196.72 512.66 227.19"
/>
<path stroke="#8285a6" vector-effect="non-scaling-stroke" d="
  M 968.31 256.06
  C 982.92 217.95 970.66 171.20 931.99 152.49
  Q 931.50 152.25 931.50 152.80
  L 931.50 154.48
  Q 931.50 155.04 931.96 155.35
  Q 951.78 168.84 956.40 193.07
  C 962.22 223.67 963.55 273.62 932.53 292.42
  C 931.34 293.14 931.17 293.97 931.57 295.23
  Q 931.73 295.74 932.22 295.52
  C 948.92 287.85 961.88 272.84 968.31 256.06"
/>
<path stroke="#8285a6" vector-effect="non-scaling-stroke" d="
  M 602.20 233.88
  Q 604.46 246.09 608.18 258.27
  Q 609.36 262.12 613.28 263.55
  C 620.72 266.27 631.79 251.20 634.76 245.84
  Q 635.06 245.31 634.54 245.00
  L 633.13 244.17
  Q 632.46 243.77 632.09 244.46
  Q 628.80 250.70 623.37 254.30
  C 618.74 257.37 617.38 249.53 616.68 246.56
  Q 613.63 233.76 610.61 220.92
  Q 610.49 220.44 610.72 220.00
  Q 615.27 211.33 621.98 204.25
  C 628.19 197.69 632.15 208.37 638.64 203.67
  Q 640.02 202.67 640.51 200.73
  C 642.70 192.04 633.91 188.65 627.54 193.04
  C 619.31 198.71 615.02 206.26 609.76 214.49
  A 0.55 0.55 0.0 0 1 608.76 214.31
  C 606.95 206.32 604.81 197.69 598.76 191.48
  Q 598.37 191.08 597.83 191.19
  L 578.32 194.98
  Q 577.75 195.09 577.75 195.67
  L 577.75 198.50
  Q 577.75 199.03 578.29 199.02
  C 591.19 198.63 593.30 201.71 596.59 213.21
  Q 598.60 220.24 600.38 227.38
  Q 600.50 227.86 600.26 228.30
  C 596.71 234.85 587.15 251.95 579.96 255.10
  A 0.97 0.96 50.6 0 1 579.01 255.00
  C 576.52 253.19 573.16 250.41 570.01 251.22
  C 561.00 253.54 566.13 267.10 577.03 263.11
  C 586.49 259.64 596.56 242.38 601.23 233.73
  A 0.52 0.52 0.0 0 1 602.20 233.88"
/>
<path stroke="#8285a6" vector-effect="non-scaling-stroke" d="
  M 884.22 233.86
  C 885.44 240.63 888.21 258.88 893.86 262.89
  C 901.32 268.18 913.84 251.25 916.65 245.93
  Q 916.82 245.60 916.61 245.29
  Q 915.75 244.04 914.75 244.26
  Q 914.00 244.42 913.30 245.71
  C 911.83 248.41 906.38 255.60 902.79 254.94
  Q 900.97 254.60 900.47 252.96
  Q 897.52 243.43 892.69 220.69
  Q 892.58 220.22 892.82 219.80
  C 896.18 213.67 901.57 204.41 907.81 201.94
  A 1.38 1.37 -46.7 0 1 908.76 201.91
  C 912.52 203.11 915.90 206.32 919.86 204.16
  C 927.68 199.90 920.13 186.02 909.81 192.82
  C 901.61 198.21 896.78 206.31 891.81 214.53
  A 0.54 0.54 0.0 0 1 890.83 214.38
  C 888.80 206.15 887.01 198.07 880.73 191.44
  Q 880.40 191.08 879.91 191.17
  L 860.21 194.99
  Q 859.75 195.08 859.75 195.54
  L 859.75 198.50
  Q 859.75 199.06 860.31 199.04
  C 872.70 198.62 875.13 201.30 878.44 212.65
  Q 880.59 220.03 882.36 227.47
  Q 882.48 227.96 882.24 228.41
  C 877.48 236.96 870.90 248.41 863.25 254.60
  A 2.27 2.27 0.0 0 1 860.51 254.68
  C 858.70 253.40 855.73 251.11 853.47 250.99
  C 843.24 250.45 847.16 269.17 859.76 262.71
  C 869.68 257.62 878.06 243.34 883.25 233.71
  A 0.52 0.52 0.0 0 1 884.22 233.86"
/>
<path stroke="#8285a6" vector-effect="non-scaling-stroke" d="
  M 809.24 217.49
  A 0.49 0.49 0.0 0 0 808.75 217.00
  L 727.31 217.00
  A 0.49 0.49 0.0 0 0 726.82 217.49
  L 726.82 224.51
  A 0.49 0.49 0.0 0 0 727.31 225.00
  L 808.75 225.00
  A 0.49 0.49 0.0 0 0 809.24 224.51
  L 809.24 217.49"
/>
<path stroke="#8285a6" vector-effect="non-scaling-stroke" d="
  M 664.5880 260.3848
  A 3.30 2.47 -2.0 0 0 661.2038 258.0315
  A 3.30 2.47 -2.0 0 0 657.9920 260.6152
  A 3.30 2.47 -2.0 0 0 661.3762 262.9685
  A 3.30 2.47 -2.0 0 0 664.5880 260.3848"
/>
<path stroke="#8285a6" vector-effect="non-scaling-stroke" d="
  M 656.85 299.14
  A 1.07 1.07 0.0 0 1 655.14 298.01
  L 663.22 270.74
  Q 663.42 270.08 662.74 270.19
  L 652.01 272.01
  A 0.36 0.36 0.0 0 0 651.76 272.55
  L 651.89 272.77
  Q 652.14 273.19 652.61 273.02
  Q 654.51 272.32 656.28 273.08
  A 0.85 0.85 0.0 0 1 656.79 273.99
  C 655.66 281.59 652.26 289.83 650.04 297.26
  C 649.51 299.02 649.00 300.94 650.62 302.24
  C 654.26 305.15 659.86 298.19 661.43 295.55
  A 0.56 0.56 0.0 0 0 660.67 294.78
  L 660.30 295.00
  Q 659.98 295.19 659.80 295.52
  Q 658.72 297.59 656.85 299.14"
/>
<path stroke="#8285a6" vector-effect="non-scaling-stroke" d="
  M 445.88 323.85
  C 448.69 322.33 452.00 322.48 452.01 326.57
  Q 452.06 343.53 451.97 360.51
  Q 451.95 365.28 447.58 364.94
  Q 447.18 364.91 446.83 365.08
  L 446.37 365.30
  A 0.37 0.37 0.0 0 0 446.53 366.00
  L 463.14 366.00
  A 0.45 0.45 0.0 0 0 463.20 365.11
  L 459.78 364.59
  A 2.30 2.30 0.0 0 1 457.82 362.33
  L 457.58 318.48
  A 0.58 0.57 77.6 0 0 456.77 317.96
  L 445.70 322.88
  Q 445.45 322.98 445.49 323.25
  L 445.55 323.68
  A 0.23 0.22 -17.4 0 0 445.88 323.85"
/>
<path stroke="#8285a6" vector-effect="non-scaling-stroke" d="
  M 390.5896 324.4482
  A 3.30 2.48 -0.9 0 0 387.2510 322.0203
  A 3.30 2.48 -0.9 0 0 383.9904 324.5518
  A 3.30 2.48 -0.9 0 0 387.3290 326.9797
  A 3.30 2.48 -0.9 0 0 390.5896 324.4482"
/>
<path stroke="#8285a6" vector-effect="non-scaling-stroke" d="
  M 110.74 398.00
  L 139.98 398.00
  Q 140.46 398.00 140.42 398.47
  Q 139.69 409.44 138.17 420.30
  C 137.16 427.53 131.59 430.50 124.67 429.94
  A 0.72 0.71 11.9 0 0 123.93 430.42
  L 123.26 432.42
  A 0.44 0.44 0.0 0 0 123.68 433.00
  L 164.48 433.00
  A 0.48 0.48 0.0 0 0 164.94 432.65
  L 165.55 430.59
  A 0.54 0.54 0.0 0 0 164.99 429.90
  C 158.21 430.52 151.17 427.81 151.91 419.74
  Q 156.23 372.47 160.47 326.25
  A 1.48 1.48 0.0 0 0 157.81 325.23
  Q 123.84 371.18 89.83 417.03
  C 85.03 423.52 80.17 429.21 72.06 430.10
  A 0.80 0.78 -85.5 0 0 71.39 430.69
  L 70.98 432.28
  Q 70.79 433.00 71.54 433.00
  L 100.87 433.00
  Q 101.45 433.00 101.64 432.46
  L 102.31 430.61
  A 0.51 0.51 0.0 0 0 101.81 429.93
  C 93.55 430.24 91.69 423.23 96.01 417.28
  Q 102.85 407.87 109.75 398.50
  A 1.23 1.20 17.4 0 1 110.74 398.00"
/>
<path stroke="#8285a6" vector-effect="non-scaling-stroke" d="
  M 382.67 363.14
  A 1.04 1.04 0.0 0 1 381.14 361.96
  L 389.24 334.73
  A 0.46 0.45 -86.4 0 0 388.73 334.15
  Q 383.57 335.02 378.26 336.06
  Q 377.12 336.28 378.11 337.01
  A 0.74 0.72 56.5 0 0 378.70 337.14
  Q 380.77 336.69 381.82 337.07
  Q 382.91 337.46 382.54 339.36
  C 381.00 347.30 377.78 355.39 375.69 363.30
  Q 375.18 365.19 376.69 366.31
  C 380.40 369.05 385.93 362.08 387.45 359.50
  A 0.51 0.51 0.0 0 0 386.94 358.73
  C 385.94 358.87 383.96 362.36 382.67 363.14"
/>
<path stroke="#8285a6" vector-effect="non-scaling-stroke" d="
  M 436.73 340.43
  A 0.43 0.43 0.0 0 0 436.30 340.00
  L 401.92 340.00
  A 0.43 0.43 0.0 0 0 401.49 340.43
  L 401.49 342.57
  A 0.43 0.43 0.0 0 0 401.92 343.00
  L 436.30 343.00
  A 0.43 0.43 0.0 0 0 436.73 342.57
  L 436.73 340.43"
/>
<path stroke="#8285a6" vector-effect="non-scaling-stroke" d="
  M 436.74 353.51
  A 0.51 0.51 0.0 0 0 436.23 353.00
  L 402.01 353.00
  A 0.51 0.51 0.0 0 0 401.50 353.51
  L 401.50 355.49
  A 0.51 0.51 0.0 0 0 402.01 356.00
  L 436.23 356.00
  A 0.51 0.51 0.0 0 0 436.74 355.49
  L 436.74 353.51"
/>
<path stroke="#8285a6" vector-effect="non-scaling-stroke" d="
  M 300.24 374.49
  A 0.49 0.49 0.0 0 0 299.75 374.00
  L 218.31 374.00
  A 0.49 0.49 0.0 0 0 217.82 374.49
  L 217.82 381.51
  A 0.49 0.49 0.0 0 0 218.31 382.00
  L 299.75 382.00
  A 0.49 0.49 0.0 0 0 300.24 381.51
  L 300.24 374.49"
/>
<path stroke="#8285a6" vector-effect="non-scaling-stroke" d="
  M 348.44 395.81
  Q 348.60 396.00 349.00 396.00
  Q 701.56 396.00 1054.25 396.00
  A 1.54 1.54 0.0 0 0 1055.79 394.37
  L 1055.64 391.87
  Q 1055.61 391.23 1054.97 391.25
  C 1053.35 391.30 1051.70 391.00 1050.26 391.00
  Q 699.58 391.00 348.91 391.00
  A 1.30 1.28 -65.5 0 0 348.05 391.33
  Q 346.03 393.14 347.74 395.50
  Q 347.87 395.68 348.05 395.73
  Q 348.22 395.78 348.44 395.81"
/>
<path stroke="#8285a6" vector-effect="non-scaling-stroke" d="
  M 300.24 403.47
  A 0.47 0.47 0.0 0 0 299.77 403.00
  L 218.31 403.00
  A 0.47 0.47 0.0 0 0 217.84 403.47
  L 217.84 410.53
  A 0.47 0.47 0.0 0 0 218.31 411.00
  L 299.77 411.00
  A 0.47 0.47 0.0 0 0 300.24 410.53
  L 300.24 403.47"
/>
<path stroke="#8285a6" vector-effect="non-scaling-stroke" d="
  M 948.01 457.92
  C 951.97 453.71 956.04 448.66 952.43 442.90
  C 946.44 433.38 933.61 438.63 930.74 447.82
  A 0.37 0.36 -11.0 0 0 931.32 448.21
  C 933.12 446.74 934.47 444.83 936.36 443.92
  C 948.62 438.04 954.28 457.72 938.03 462.13
  A 0.42 0.42 0.0 0 0 938.13 462.95
  Q 947.45 463.21 950.28 470.45
  C 952.65 476.48 949.92 482.85 943.20 483.92
  C 940.05 484.41 936.60 482.28 933.66 481.14
  A 2.74 2.73 -66.9 0 0 930.20 482.54
  C 928.43 486.34 935.84 487.06 937.90 487.05
  C 945.89 487.05 953.27 483.02 955.52 475.04
  Q 958.75 463.60 948.14 458.59
  Q 947.61 458.34 948.01 457.92"
/>
<path stroke="#8285a6" vector-effect="non-scaling-stroke" d="
  M 872.50 489.63
  Q 873.20 490.37 872.20 490.59
  C 851.10 495.29 834.37 506.10 826.14 526.55
  C 821.10 539.05 823.64 553.84 837.45 558.54
  C 854.43 564.33 874.33 552.11 885.15 539.89
  C 894.73 529.08 903.00 509.44 893.67 496.31
  C 886.23 485.84 875.01 479.28 866.73 471.01
  C 862.46 466.75 861.34 461.07 866.23 456.55
  Q 874.59 448.82 886.32 451.74
  C 891.64 453.06 894.90 460.63 897.74 464.80
  C 903.68 473.53 921.49 454.41 901.62 448.27
  Q 889.62 444.56 877.23 446.92
  C 863.82 449.47 849.52 462.73 861.20 476.81
  Q 866.62 483.33 872.50 489.63"
/>
<path stroke="#8285a6" vector-effect="non-scaling-stroke" d="
  M 448.31 463.31
  C 413.14 501.55 421.06 567.28 468.89 591.55
  Q 470.37 592.31 469.67 590.81
  Q 469.38 590.21 469.50 589.49
  A 0.85 0.84 22.4 0 0 469.14 588.64
  C 454.90 579.18 447.90 566.75 444.49 549.76
  Q 439.68 525.77 442.37 501.18
  C 444.61 480.75 450.98 462.06 469.26 450.92
  Q 469.83 450.58 469.62 449.94
  Q 469.45 449.42 469.71 448.89
  A 0.41 0.41 0.0 0 0 469.18 448.33
  Q 457.00 453.86 448.31 463.31"
/>
<path stroke="#8285a6" vector-effect="non-scaling-stroke" d="
  M 766.19 451.56
  C 780.99 462.01 787.65 474.07 790.93 492.00
  Q 795.56 517.27 792.06 543.01
  C 789.52 561.73 783.01 578.62 766.05 588.74
  Q 765.50 589.06 765.50 589.71
  L 765.50 591.23
  Q 765.50 591.85 766.06 591.58
  C 822.46 565.28 822.42 475.99 766.20 448.52
  Q 765.86 448.35 765.70 448.70
  Q 764.82 450.60 766.19 451.56"
/>
<path stroke="#8285a6" vector-effect="non-scaling-stroke" d="
  M 715.67 463.72
  C 726.77 457.76 729.16 464.56 729.19 474.25
  Q 729.29 510.72 729.31 547.18
  C 729.31 555.08 722.69 556.13 716.34 555.98
  Q 715.72 555.96 715.74 556.58
  L 715.78 557.62
  A 0.40 0.39 -0.7 0 0 716.18 558.00
  L 755.00 558.00
  Q 755.50 558.00 755.50 557.50
  L 755.50 556.54
  A 0.56 0.55 89.5 0 0 754.94 555.98
  C 748.90 556.01 742.60 555.40 742.39 548.16
  C 741.48 515.87 742.14 483.57 742.32 451.80
  Q 742.34 448.78 739.60 450.05
  L 714.31 461.80
  A 0.58 0.57 -32.6 0 0 714.11 462.70
  L 714.86 463.57
  A 0.68 0.67 55.2 0 0 715.67 463.72"
/>
<path stroke="#8285a6" vector-effect="non-scaling-stroke" d="
  M 502.45 521.23
  L 512.15 487.95
  Q 512.40 487.09 511.52 487.22
  L 486.35 490.98
  Q 485.77 491.07 485.78 491.65
  L 485.83 493.37
  A 0.60 0.60 0.0 0 0 486.57 493.94
  C 494.08 492.12 498.87 493.17 496.32 502.18
  Q 488.50 529.83 480.35 557.42
  Q 480.17 558.00 480.78 558.00
  L 491.24 558.00
  Q 491.84 558.00 491.98 557.42
  C 497.18 536.96 508.43 515.98 524.42 501.68
  C 528.87 497.69 543.56 489.99 538.46 505.19
  Q 531.94 524.62 525.66 544.11
  C 524.16 548.78 521.81 556.78 526.75 559.20
  C 535.01 563.26 546.32 548.68 550.07 543.02
  Q 550.46 542.43 549.85 542.08
  L 548.67 541.40
  A 0.64 0.63 30.7 0 0 547.81 541.61
  Q 544.37 547.02 539.65 551.38
  A 1.98 1.98 0.0 0 1 536.40 550.43
  Q 536.11 549.33 536.69 547.61
  Q 543.89 526.10 550.73 504.50
  C 552.34 499.42 552.48 493.00 548.31 489.25
  C 539.83 481.60 525.10 494.12 519.74 500.24
  Q 510.81 510.43 502.97 521.48
  A 0.29 0.29 0.0 0 1 502.45 521.23"
/>
<path stroke="#8285a6" vector-effect="non-scaling-stroke" d="
  M 676.25 513.49
  A 0.49 0.49 0.0 0 0 675.76 513.00
  L 594.32 513.00
  A 0.49 0.49 0.0 0 0 593.83 513.49
  L 593.83 520.51
  A 0.49 0.49 0.0 0 0 594.32 521.00
  L 675.76 521.00
  A 0.49 0.49 0.0 0 0 676.25 520.51
  L 676.25 513.49"
/>
<path stroke="#8285a6" vector-effect="non-scaling-stroke" d="
  M 929.62 585.88
  C 930.17 588.71 931.56 598.74 935.35 598.89
  C 938.28 599.01 942.50 593.19 943.68 590.91
  A 0.48 0.48 0.0 0 0 943.14 590.23
  C 942.10 590.49 940.24 593.87 938.71 594.70
  A 1.46 1.46 0.0 0 1 936.59 593.76
  L 933.09 579.56
  Q 932.98 579.12 933.22 578.75
  Q 934.32 577.02 936.86 573.36
  C 939.89 568.99 941.19 572.38 944.32 571.97
  C 946.91 571.62 947.26 567.77 945.16 566.58
  C 940.44 563.90 934.67 572.77 933.11 576.15
  A 0.50 0.50 0.0 0 1 932.16 576.03
  Q 931.21 570.86 928.38 566.48
  Q 928.06 565.98 927.49 566.12
  L 919.39 568.07
  A 1.00 1.00 0.0 0 0 919.75 570.04
  C 927.30 569.11 927.38 577.10 928.71 582.29
  A 1.25 1.23 53.3 0 1 928.58 583.23
  C 927.29 585.46 923.31 593.12 920.14 594.92
  A 0.77 0.76 -38.4 0 1 919.24 594.82
  C 918.27 593.96 917.21 592.81 915.83 593.06
  C 910.60 594.00 915.36 602.87 920.87 597.09
  Q 925.66 592.07 928.84 585.78
  A 0.42 0.41 -37.4 0 1 929.62 585.88"
/>
<path stroke="#8285a6" vector-effect="non-scaling-stroke" d="
  M 144.68 351.50
  L 114.24 392.49
  Q 113.87 393.00 114.50 393.00
  L 140.49 393.00
  A 0.61 0.61 0.0 0 0 141.10 392.44
  L 145.16 351.68
  Q 145.25 350.73 144.68 351.50"
/>
<path stroke="#8285a6" vector-effect="non-scaling-stroke" d="
  M 837.72 542.74
  C 838.51 550.18 844.50 555.99 852.26 554.96
  C 870.66 552.50 881.10 532.08 882.66 515.58
  C 883.37 508.05 879.54 500.66 875.68 494.61
  A 0.90 0.90 0.0 0 0 874.77 494.21
  C 859.45 496.85 849.15 505.62 842.85 519.60
  C 839.75 526.48 836.91 535.05 837.72 542.74"
/>
</g>
<path fill="#8285a6" d="
  M 1014.19 82.61
  C 1025.70 87.31 1023.75 102.46 1014.52 108.21
  C 1010.13 110.94 1000.94 112.62 996.60 109.11
  A 2.13 2.13 0.0 0 1 996.45 105.94
  C 998.63 103.79 1002.28 106.22 1004.64 107.17
  C 1018.72 112.85 1023.56 88.21 1004.26 86.80
  A 0.39 0.39 0.0 0 1 1004.20 86.03
  C 1020.40 82.41 1014.58 61.17 1001.75 68.28
  C 1000.18 69.15 998.90 70.81 997.53 72.07
  A 0.52 0.52 0.0 0 1 996.69 71.49
  C 1004.60 52.35 1031.13 65.72 1014.05 81.86
  Q 1013.54 82.35 1014.19 82.61
  Z"
/>
<path fill="#8285a6" d="
  M 413.88 113.15
  C 417.63 108.04 421.06 102.75 426.70 99.26
  C 433.76 94.88 436.00 102.30 434.26 107.49
  Q 431.12 116.82 427.91 126.05
  A 1.02 1.02 0.0 0 0 429.63 127.06
  L 433.49 122.74
  A 0.27 0.27 0.0 0 1 433.91 122.76
  Q 434.01 122.89 434.11 122.98
  Q 434.19 123.05 434.14 123.14
  Q 431.64 127.65 427.35 130.27
  C 424.45 132.03 421.81 130.02 422.71 126.86
  Q 425.77 116.05 429.21 105.36
  Q 429.61 104.13 429.53 103.47
  A 1.83 1.82 -16.2 0 0 426.93 102.04
  C 418.00 106.30 411.14 120.42 408.85 129.50
  Q 408.73 130.00 408.21 130.00
  L 404.22 130.00
  A 0.55 0.55 0.0 0 1 403.69 129.29
  Q 407.48 116.63 411.20 104.00
  Q 411.68 102.37 410.89 101.23
  A 1.12 1.11 -15.9 0 0 410.04 100.76
  Q 408.70 100.68 406.58 100.89
  Q 406.24 100.92 406.10 100.69
  Q 405.81 100.18 406.38 100.08
  L 417.20 98.18
  Q 417.91 98.06 417.71 98.74
  L 413.55 112.99
  Q 413.25 114.01 413.88 113.15
  Z"
/>
<rect fill="#8285a6" x="846.25" y="114.00" width="77.52" height="5.00" rx="1.90"/>
<path fill="#8285a6" d="
  M 378.73 282.96
  Q 427.52 283.10 450.50 282.99
  C 464.32 282.92 474.61 276.80 476.74 262.29
  A 0.69 0.69 0.0 0 1 477.51 261.70
  L 479.96 262.04
  A 0.59 0.58 -81.7 0 1 480.45 262.71
  L 475.18 297.45
  Q 475.10 298.00 474.54 298.00
  L 361.03 298.00
  A 1.66 1.66 0.0 0 1 359.74 295.30
  L 418.16 222.90
  Q 418.49 222.48 418.16 222.07
  L 360.00 150.53
  A 1.13 1.13 0.0 0 1 359.75 149.82
  L 359.75 147.50
  Q 359.75 147.00 360.25 147.00
  L 471.37 147.00
  A 0.65 0.65 0.0 0 1 472.02 147.61
  L 474.19 176.38
  Q 474.24 177.00 473.62 177.00
  L 471.29 177.00
  Q 470.68 177.00 470.64 176.40
  C 469.52 160.62 461.90 154.06 446.54 154.03
  Q 415.34 153.96 384.26 154.01
  A 0.26 0.26 0.0 0 0 384.07 154.43
  L 432.91 214.48
  Q 433.26 214.91 432.91 215.33
  L 378.48 282.43
  Q 378.06 282.96 378.73 282.96
  Z"
/>
<path fill="#8285a6" d="
  M 555.00 295.58
  C 528.99 282.80 513.59 255.87 512.66 227.19
  C 511.68 196.72 526.48 165.52 554.97 152.44
  Q 555.57 152.17 555.57 152.83
  L 555.57 154.26
  Q 555.57 154.96 554.97 155.30
  Q 542.17 162.69 536.24 175.53
  C 525.67 198.39 525.55 228.78 530.36 253.19
  C 533.73 270.32 540.62 282.87 554.94 292.48
  Q 555.41 292.80 555.46 293.36
  L 555.60 295.18
  Q 555.65 295.90 555.00 295.58
  Z"
/>
<path fill="#8285a6" d="
  M 968.31 256.06
  C 961.88 272.84 948.92 287.85 932.22 295.52
  Q 931.73 295.74 931.57 295.23
  C 931.17 293.97 931.34 293.14 932.53 292.42
  C 963.55 273.62 962.22 223.67 956.40 193.07
  Q 951.78 168.84 931.96 155.35
  Q 931.50 155.04 931.50 154.48
  L 931.50 152.80
  Q 931.50 152.25 931.99 152.49
  C 970.66 171.20 982.92 217.95 968.31 256.06
  Z"
/>
<path fill="#8285a6" d="
  M 602.20 233.88
  A 0.52 0.52 0.0 0 0 601.23 233.73
  C 596.56 242.38 586.49 259.64 577.03 263.11
  C 566.13 267.10 561.00 253.54 570.01 251.22
  C 573.16 250.41 576.52 253.19 579.01 255.00
  A 0.97 0.96 50.6 0 0 579.96 255.10
  C 587.15 251.95 596.71 234.85 600.26 228.30
  Q 600.50 227.86 600.38 227.38
  Q 598.60 220.24 596.59 213.21
  C 593.30 201.71 591.19 198.63 578.29 199.02
  Q 577.75 199.03 577.75 198.50
  L 577.75 195.67
  Q 577.75 195.09 578.32 194.98
  L 597.83 191.19
  Q 598.37 191.08 598.76 191.48
  C 604.81 197.69 606.95 206.32 608.76 214.31
  A 0.55 0.55 0.0 0 0 609.76 214.49
  C 615.02 206.26 619.31 198.71 627.54 193.04
  C 633.91 188.65 642.70 192.04 640.51 200.73
  Q 640.02 202.67 638.64 203.67
  C 632.15 208.37 628.19 197.69 621.98 204.25
  Q 615.27 211.33 610.72 220.00
  Q 610.49 220.44 610.61 220.92
  Q 613.63 233.76 616.68 246.56
  C 617.38 249.53 618.74 257.37 623.37 254.30
  Q 628.80 250.70 632.09 244.46
  Q 632.46 243.77 633.13 244.17
  L 634.54 245.00
  Q 635.06 245.31 634.76 245.84
  C 631.79 251.20 620.72 266.27 613.28 263.55
  Q 609.36 262.12 608.18 258.27
  Q 604.46 246.09 602.20 233.88
  Z"
/>
<path fill="#8285a6" d="
  M 884.22 233.86
  A 0.52 0.52 0.0 0 0 883.25 233.71
  C 878.06 243.34 869.68 257.62 859.76 262.71
  C 847.16 269.17 843.24 250.45 853.47 250.99
  C 855.73 251.11 858.70 253.40 860.51 254.68
  A 2.27 2.27 0.0 0 0 863.25 254.60
  C 870.90 248.41 877.48 236.96 882.24 228.41
  Q 882.48 227.96 882.36 227.47
  Q 880.59 220.03 878.44 212.65
  C 875.13 201.30 872.70 198.62 860.31 199.04
  Q 859.75 199.06 859.75 198.50
  L 859.75 195.54
  Q 859.75 195.08 860.21 194.99
  L 879.91 191.17
  Q 880.40 191.08 880.73 191.44
  C 887.01 198.07 888.80 206.15 890.83 214.38
  A 0.54 0.54 0.0 0 0 891.81 214.53
  C 896.78 206.31 901.61 198.21 909.81 192.82
  C 920.13 186.02 927.68 199.90 919.86 204.16
  C 915.90 206.32 912.52 203.11 908.76 201.91
  A 1.38 1.37 -46.7 0 0 907.81 201.94
  C 901.57 204.41 896.18 213.67 892.82 219.80
  Q 892.58 220.22 892.69 220.69
  Q 897.52 243.43 900.47 252.96
  Q 900.97 254.60 902.79 254.94
  C 906.38 255.60 911.83 248.41 913.30 245.71
  Q 914.00 244.42 914.75 244.26
  Q 915.75 244.04 916.61 245.29
  Q 916.82 245.60 916.65 245.93
  C 913.84 251.25 901.32 268.18 893.86 262.89
  C 888.21 258.88 885.44 240.63 884.22 233.86
  Z"
/>
<rect fill="#8285a6" x="726.82" y="217.00" width="82.42" height="8.00" rx="0.49"/>
<ellipse fill="#8285a6" cx="0.00" cy="0.00" transform="translate(661.29,260.50) rotate(-2.0)" rx="3.30" ry="2.47"/>
<path fill="#8285a6" d="
  M 656.85 299.14
  Q 658.72 297.59 659.80 295.52
  Q 659.98 295.19 660.30 295.00
  L 660.67 294.78
  A 0.56 0.56 0.0 0 1 661.43 295.55
  C 659.86 298.19 654.26 305.15 650.62 302.24
  C 649.00 300.94 649.51 299.02 650.04 297.26
  C 652.26 289.83 655.66 281.59 656.79 273.99
  A 0.85 0.85 0.0 0 0 656.28 273.08
  Q 654.51 272.32 652.61 273.02
  Q 652.14 273.19 651.89 272.77
  L 651.76 272.55
  A 0.36 0.36 0.0 0 1 652.01 272.01
  L 662.74 270.19
  Q 663.42 270.08 663.22 270.74
  L 655.14 298.01
  A 1.07 1.07 0.0 0 0 656.85 299.14
  Z"
/>
<path fill="#8285a6" d="
  M 452.01 326.57
  C 452.00 322.48 448.69 322.33 445.88 323.85
  A 0.23 0.22 -17.4 0 1 445.55 323.68
  L 445.49 323.25
  Q 445.45 322.98 445.70 322.88
  L 456.77 317.96
  A 0.58 0.57 77.6 0 1 457.58 318.48
  L 457.82 362.33
  A 2.30 2.30 0.0 0 0 459.78 364.59
  L 463.20 365.11
  A 0.45 0.45 0.0 0 1 463.14 366.00
  L 446.53 366.00
  A 0.37 0.37 0.0 0 1 446.37 365.30
  L 446.83 365.08
  Q 447.18 364.91 447.58 364.94
  Q 451.95 365.28 451.97 360.51
  Q 452.06 343.53 452.01 326.57
  Z"
/>
<ellipse fill="#8285a6" cx="0.00" cy="0.00" transform="translate(387.29,324.50) rotate(-0.9)" rx="3.30" ry="2.48"/>
<path fill="#8285a6" d="
  M 109.75 398.50
  Q 102.85 407.87 96.01 417.28
  C 91.69 423.23 93.55 430.24 101.81 429.93
  A 0.51 0.51 0.0 0 1 102.31 430.61
  L 101.64 432.46
  Q 101.45 433.00 100.87 433.00
  L 71.54 433.00
  Q 70.79 433.00 70.98 432.28
  L 71.39 430.69
  A 0.80 0.78 -85.5 0 1 72.06 430.10
  C 80.17 429.21 85.03 423.52 89.83 417.03
  Q 123.84 371.18 157.81 325.23
  A 1.48 1.48 0.0 0 1 160.47 326.25
  Q 156.23 372.47 151.91 419.74
  C 151.17 427.81 158.21 430.52 164.99 429.90
  A 0.54 0.54 0.0 0 1 165.55 430.59
  L 164.94 432.65
  A 0.48 0.48 0.0 0 1 164.48 433.00
  L 123.68 433.00
  A 0.44 0.44 0.0 0 1 123.26 432.42
  L 123.93 430.42
  A 0.72 0.71 11.9 0 1 124.67 429.94
  C 131.59 430.50 137.16 427.53 138.17 420.30
  Q 139.69 409.44 140.42 398.47
  Q 140.46 398.00 139.98 398.00
  L 110.74 398.00
  A 1.23 1.20 17.4 0 0 109.75 398.50
  Z
  M 144.68 351.50
  L 114.24 392.49
  Q 113.87 393.00 114.50 393.00
  L 140.49 393.00
  A 0.61 0.61 0.0 0 0 141.10 392.44
  L 145.16 351.68
  Q 145.25 350.73 144.68 351.50
  Z"
/>
<path fill="#8285a6" d="
  M 382.67 363.14
  C 383.96 362.36 385.94 358.87 386.94 358.73
  A 0.51 0.51 0.0 0 1 387.45 359.50
  C 385.93 362.08 380.40 369.05 376.69 366.31
  Q 375.18 365.19 375.69 363.30
  C 377.78 355.39 381.00 347.30 382.54 339.36
  Q 382.91 337.46 381.82 337.07
  Q 380.77 336.69 378.70 337.14
  A 0.74 0.72 56.5 0 1 378.11 337.01
  Q 377.12 336.28 378.26 336.06
  Q 383.57 335.02 388.73 334.15
  A 0.46 0.45 -86.4 0 1 389.24 334.73
  L 381.14 361.96
  A 1.04 1.04 0.0 0 0 382.67 363.14
  Z"
/>
<rect fill="#8285a6" x="401.49" y="340.00" width="35.24" height="3.00" rx="0.43"/>
<rect fill="#8285a6" x="401.50" y="353.00" width="35.24" height="3.00" rx="0.51"/>
<rect fill="#8285a6" x="217.82" y="374.00" width="82.42" height="8.00" rx="0.49"/>
<path fill="#8285a6" d="
  M 348.44 395.81
  Q 348.22 395.78 348.05 395.73
  Q 347.87 395.68 347.74 395.50
  Q 346.03 393.14 348.05 391.33
  A 1.30 1.28 -65.5 0 1 348.91 391.00
  Q 699.58 391.00 1050.26 391.00
  C 1051.70 391.00 1053.35 391.30 1054.97 391.25
  Q 1055.61 391.23 1055.64 391.87
  L 1055.79 394.37
  A 1.54 1.54 0.0 0 1 1054.25 396.00
  Q 701.56 396.00 349.00 396.00
  Q 348.60 396.00 348.44 395.81
  Z"
/>
<rect fill="#8285a6" x="217.84" y="403.00" width="82.40" height="8.00" rx="0.47"/>
<path fill="#8285a6" d="
  M 948.14 458.59
  Q 958.75 463.60 955.52 475.04
  C 953.27 483.02 945.89 487.05 937.90 487.05
  C 935.84 487.06 928.43 486.34 930.20 482.54
  A 2.74 2.73 -66.9 0 1 933.66 481.14
  C 936.60 482.28 940.05 484.41 943.20 483.92
  C 949.92 482.85 952.65 476.48 950.28 470.45
  Q 947.45 463.21 938.13 462.95
  A 0.42 0.42 0.0 0 1 938.03 462.13
  C 954.28 457.72 948.62 438.04 936.36 443.92
  C 934.47 444.83 933.12 446.74 931.32 448.21
  A 0.37 0.36 -11.0 0 1 930.74 447.82
  C 933.61 438.63 946.44 433.38 952.43 442.90
  C 956.04 448.66 951.97 453.71 948.01 457.92
  Q 947.61 458.34 948.14 458.59
  Z"
/>
<path fill="#8285a6" d="
  M 872.50 489.63
  Q 866.62 483.33 861.20 476.81
  C 849.52 462.73 863.82 449.47 877.23 446.92
  Q 889.62 444.56 901.62 448.27
  C 921.49 454.41 903.68 473.53 897.74 464.80
  C 894.90 460.63 891.64 453.06 886.32 451.74
  Q 874.59 448.82 866.23 456.55
  C 861.34 461.07 862.46 466.75 866.73 471.01
  C 875.01 479.28 886.23 485.84 893.67 496.31
  C 903.00 509.44 894.73 529.08 885.15 539.89
  C 874.33 552.11 854.43 564.33 837.45 558.54
  C 823.64 553.84 821.10 539.05 826.14 526.55
  C 834.37 506.10 851.10 495.29 872.20 490.59
  Q 873.20 490.37 872.50 489.63
  Z
  M 837.72 542.74
  C 838.51 550.18 844.50 555.99 852.26 554.96
  C 870.66 552.50 881.10 532.08 882.66 515.58
  C 883.37 508.05 879.54 500.66 875.68 494.61
  A 0.90 0.90 0.0 0 0 874.77 494.21
  C 859.45 496.85 849.15 505.62 842.85 519.60
  C 839.75 526.48 836.91 535.05 837.72 542.74
  Z"
/>
<path fill="#8285a6" d="
  M 468.89 591.55
  C 421.06 567.28 413.14 501.55 448.31 463.31
  Q 457.00 453.86 469.18 448.33
  A 0.41 0.41 0.0 0 1 469.71 448.89
  Q 469.45 449.42 469.62 449.94
  Q 469.83 450.58 469.26 450.92
  C 450.98 462.06 444.61 480.75 442.37 501.18
  Q 439.68 525.77 444.49 549.76
  C 447.90 566.75 454.90 579.18 469.14 588.64
  A 0.85 0.84 22.4 0 1 469.50 589.49
  Q 469.38 590.21 469.67 590.81
  Q 470.37 592.31 468.89 591.55
  Z"
/>
<path fill="#8285a6" d="
  M 766.19 451.56
  Q 764.82 450.60 765.70 448.70
  Q 765.86 448.35 766.20 448.52
  C 822.42 475.99 822.46 565.28 766.06 591.58
  Q 765.50 591.85 765.50 591.23
  L 765.50 589.71
  Q 765.50 589.06 766.05 588.74
  C 783.01 578.62 789.52 561.73 792.06 543.01
  Q 795.56 517.27 790.93 492.00
  C 787.65 474.07 780.99 462.01 766.19 451.56
  Z"
/>
<path fill="#8285a6" d="
  M 729.19 474.25
  C 729.16 464.56 726.77 457.76 715.67 463.72
  A 0.68 0.67 55.2 0 1 714.86 463.57
  L 714.11 462.70
  A 0.58 0.57 -32.6 0 1 714.31 461.80
  L 739.60 450.05
  Q 742.34 448.78 742.32 451.80
  C 742.14 483.57 741.48 515.87 742.39 548.16
  C 742.60 555.40 748.90 556.01 754.94 555.98
  A 0.56 0.55 89.5 0 1 755.50 556.54
  L 755.50 557.50
  Q 755.50 558.00 755.00 558.00
  L 716.18 558.00
  A 0.40 0.39 -0.7 0 1 715.78 557.62
  L 715.74 556.58
  Q 715.72 555.96 716.34 555.98
  C 722.69 556.13 729.31 555.08 729.31 547.18
  Q 729.29 510.72 729.19 474.25
  Z"
/>
<path fill="#8285a6" d="
  M 502.45 521.23
  A 0.29 0.29 0.0 0 0 502.97 521.48
  Q 510.81 510.43 519.74 500.24
  C 525.10 494.12 539.83 481.60 548.31 489.25
  C 552.48 493.00 552.34 499.42 550.73 504.50
  Q 543.89 526.10 536.69 547.61
  Q 536.11 549.33 536.40 550.43
  A 1.98 1.98 0.0 0 0 539.65 551.38
  Q 544.37 547.02 547.81 541.61
  A 0.64 0.63 30.7 0 1 548.67 541.40
  L 549.85 542.08
  Q 550.46 542.43 550.07 543.02
  C 546.32 548.68 535.01 563.26 526.75 559.20
  C 521.81 556.78 524.16 548.78 525.66 544.11
  Q 531.94 524.62 538.46 505.19
  C 543.56 489.99 528.87 497.69 524.42 501.68
  C 508.43 515.98 497.18 536.96 491.98 557.42
  Q 491.84 558.00 491.24 558.00
  L 480.78 558.00
  Q 480.17 558.00 480.35 557.42
  Q 488.50 529.83 496.32 502.18
  C 498.87 493.17 494.08 492.12 486.57 493.94
  A 0.60 0.60 0.0 0 1 485.83 493.37
  L 485.78 491.65
  Q 485.77 491.07 486.35 490.98
  L 511.52 487.22
  Q 512.40 487.09 512.15 487.95
  L 502.45 521.23
  Z"
/>
<rect fill="#8285a6" x="593.83" y="513.00" width="82.42" height="8.00" rx="0.49"/>
<path fill="#8285a6" d="
  M 929.62 585.88
  A 0.42 0.41 -37.4 0 0 928.84 585.78
  Q 925.66 592.07 920.87 597.09
  C 915.36 602.87 910.60 594.00 915.83 593.06
  C 917.21 592.81 918.27 593.96 919.24 594.82
  A 0.77 0.76 -38.4 0 0 920.14 594.92
  C 923.31 593.12 927.29 585.46 928.58 583.23
  A 1.25 1.23 53.3 0 0 928.71 582.29
  C 927.38 577.10 927.30 569.11 919.75 570.04
  A 1.00 1.00 0.0 0 1 919.39 568.07
  L 927.49 566.12
  Q 928.06 565.98 928.38 566.48
  Q 931.21 570.86 932.16 576.03
  A 0.50 0.50 0.0 0 0 933.11 576.15
  C 934.67 572.77 940.44 563.90 945.16 566.58
  C 947.26 567.77 946.91 571.62 944.32 571.97
  C 941.19 572.38 939.89 568.99 936.86 573.36
  Q 934.32 577.02 933.22 578.75
  Q 932.98 579.12 933.09 579.56
  L 936.59 593.76
  A 1.46 1.46 0.0 0 0 938.71 594.70
  C 940.24 593.87 942.10 590.49 943.14 590.23
  A 0.48 0.48 0.0 0 1 943.68 590.91
  C 942.50 593.19 938.28 599.01 935.35 598.89
  C 931.56 598.74 930.17 588.71 929.62 585.88
  Z"
/>
</svg>
