<?xml version="1.0" encoding="UTF-8" standalone="no"?>
<!DOCTYPE svg PUBLIC "-//W3C//DTD SVG 1.1//EN" "http://www.w3.org/Graphics/SVG/1.1/DTD/svg11.dtd">
<svg xmlns="http://www.w3.org/2000/svg" version="1.1" viewBox="0.00 0.00 1151.00 574.00">
<g stroke-width="2.00" fill="none" stroke-linecap="butt">
<path stroke="#8285a6" vector-effect="non-scaling-stroke" d="
  M 1151.00 19.01
  L 424.15 19.23
  A 0.72 0.72 0.0 0 0 423.45 19.77
  Q 423.01 21.41 422.90 23.07
  Q 405.03 277.88 387.19 532.69
  C 386.96 535.92 387.05 539.52 386.88 542.94
  A 0.30 0.30 0.0 0 1 386.28 542.97
  Q 372.50 450.88 358.67 358.56
  C 358.32 356.25 355.51 350.56 352.29 352.28
  Q 345.03 356.17 332.75 363.50
  C 330.50 364.84 329.46 364.95 330.24 367.74
  A 2.03 2.03 0.0 0 0 333.22 368.95
  L 348.21 360.22
  A 0.49 0.49 0.0 0 1 348.94 360.57
  Q 364.18 462.03 379.28 563.08
  C 379.98 567.78 384.01 571.99 388.29 567.40
  C 390.12 565.45 390.09 563.25 390.28 560.63
  Q 408.75 297.41 427.06 34.18
  Q 427.40 29.38 428.01 24.51
  Q 428.07 24.01 428.58 24.01
  L 1151.00 24.01"
/>
<path stroke="#8285a6" vector-effect="non-scaling-stroke" d="
  M 502.67 79.70
  L 506.68 65.72
  Q 506.87 65.05 506.18 65.17
  L 495.11 67.16
  A 0.23 0.23 0.0 0 0 495.00 67.56
  L 495.23 67.76
  Q 495.37 67.88 495.56 67.87
  L 498.67 67.73
  A 1.83 1.83 0.0 0 1 500.51 70.08
  L 492.68 96.32
  A 0.52 0.52 0.0 0 0 493.17 96.99
  L 497.02 97.01
  Q 497.67 97.01 497.83 96.38
  C 499.41 90.27 508.79 69.31 516.61 68.91
  Q 517.55 68.86 517.87 69.19
  A 2.82 2.81 32.4 0 1 518.51 72.03
  Q 515.05 82.43 511.87 92.93
  C 511.04 95.67 512.45 99.53 515.85 97.62
  Q 520.33 95.10 523.06 90.34
  Q 523.28 89.95 522.87 89.78
  Q 522.69 89.71 522.47 89.76
  Q 522.18 89.82 521.93 90.20
  Q 520.40 92.45 518.58 93.97
  A 1.02 1.01 -10.3 0 1 516.97 92.86
  Q 520.12 83.86 523.10 74.66
  C 525.71 66.58 520.82 61.93 513.54 67.51
  C 509.58 70.55 506.08 75.82 503.03 79.87
  Q 502.37 80.75 502.67 79.70"
/>
<path stroke="#8285a6" vector-effect="non-scaling-stroke" d="
  M 1007.78 83.07
  A 2.06 2.06 0.0 0 0 1005.72 81.01
  L 932.14 81.01
  A 2.06 2.06 0.0 0 0 930.08 83.07
  L 930.08 83.93
  A 2.06 2.06 0.0 0 0 932.14 85.99
  L 1005.72 85.99
  A 2.06 2.06 0.0 0 0 1007.78 83.93
  L 1007.78 83.07"
/>
<path stroke="#8285a6" vector-effect="non-scaling-stroke" d="
  M 1088.20 151.98
  A 0.25 0.25 0.0 0 1 1088.03 151.56
  C 1095.99 143.42 1117.25 124.36 1103.79 112.31
  C 1095.42 104.81 1083.04 110.65 1082.14 121.46
  A 0.56 0.56 0.0 0 0 1083.24 121.67
  C 1086.20 112.08 1099.58 111.01 1101.95 121.35
  C 1104.80 133.77 1089.24 148.27 1080.70 155.49
  A 0.86 0.85 -65.1 0 0 1081.25 157.00
  L 1107.25 157.00
  Q 1107.79 157.00 1107.97 156.49
  L 1110.78 148.54
  A 0.51 0.51 0.0 0 0 1109.86 148.11
  C 1106.47 153.93 1094.24 152.04 1088.20 151.98"
/>
<path stroke="#8285a6" vector-effect="non-scaling-stroke" d="
  M 467.48 248.44
  L 521.91 181.30
  Q 522.24 180.89 521.91 180.49
  L 473.21 120.58
  Q 472.80 120.07 473.45 120.07
  Q 504.05 119.86 534.67 120.01
  Q 543.19 120.05 547.01 121.55
  C 555.38 124.83 559.19 133.54 559.78 142.36
  Q 559.82 143.00 560.46 143.00
  L 562.61 143.00
  Q 563.21 143.00 563.16 142.40
  L 560.99 113.48
  A 0.51 0.51 0.0 0 0 560.48 113.00
  L 450.28 113.00
  A 1.97 1.97 0.0 0 0 448.75 116.21
  L 507.16 188.05
  Q 507.49 188.47 507.16 188.88
  L 448.75 261.30
  A 1.66 1.65 -70.5 0 0 450.03 264.00
  L 563.53 264.00
  Q 564.08 264.00 564.16 263.46
  L 569.46 228.69
  Q 569.54 228.14 568.99 228.06
  L 566.73 227.72
  A 0.79 0.79 0.0 0 0 565.83 228.34
  C 564.18 236.49 560.37 243.96 552.22 246.69
  Q 545.41 248.97 541.00 248.98
  Q 504.37 249.06 467.74 248.97
  Q 467.05 248.97 467.48 248.44"
/>
<path stroke="#8285a6" vector-effect="non-scaling-stroke" d="
  M 643.04 118.39
  C 586.44 144.67 586.69 234.82 643.06 261.55
  Q 643.44 261.73 643.59 261.34
  Q 644.30 259.47 642.95 258.53
  C 629.73 249.23 622.70 238.59 619.11 222.52
  Q 612.13 191.23 618.36 159.31
  C 621.47 143.41 628.87 129.18 643.33 121.14
  A 0.83 0.83 0.0 0 0 643.62 119.96
  Q 643.27 119.43 643.70 118.94
  Q 644.93 117.51 643.04 118.39"
/>
<path stroke="#8285a6" vector-effect="non-scaling-stroke" d="
  M 1039.24 153.75
  C 1045.25 177.39 1045.48 206.62 1037.96 230.72
  Q 1032.23 249.06 1015.89 258.87
  Q 1015.50 259.10 1015.50 259.55
  L 1015.50 261.19
  Q 1015.50 261.85 1016.10 261.57
  C 1037.85 251.44 1051.96 230.75 1056.76 207.26
  C 1063.87 172.46 1048.87 134.66 1016.09 118.42
  Q 1015.50 118.13 1015.50 118.79
  L 1015.50 120.69
  Q 1015.50 121.21 1015.93 121.50
  Q 1034.12 133.59 1039.24 153.75"
/>
<path stroke="#8285a6" vector-effect="non-scaling-stroke" d="
  M 690.21 199.84
  Q 692.25 210.99 695.54 222.04
  C 701.44 241.89 719.03 218.81 722.71 211.79
  Q 722.98 211.27 722.47 210.96
  L 720.98 210.08
  A 0.60 0.59 -61.0 0 0 720.15 210.32
  Q 716.99 216.58 711.22 220.41
  C 707.51 222.87 706.12 217.86 705.43 215.16
  Q 701.84 201.00 698.60 186.77
  Q 698.49 186.27 698.74 185.83
  C 701.99 180.04 707.31 170.79 713.57 167.97
  A 1.44 1.40 39.5 0 1 714.55 167.89
  C 718.55 169.00 721.94 172.51 726.13 170.01
  C 732.41 166.25 727.82 155.91 720.24 157.15
  C 710.76 158.70 702.43 172.83 697.84 180.48
  A 0.57 0.56 53.2 0 1 696.81 180.33
  C 694.71 172.08 692.87 163.99 686.88 157.51
  Q 686.47 157.06 685.87 157.18
  L 666.31 161.00
  Q 665.75 161.11 665.75 161.69
  L 665.75 164.50
  Q 665.75 165.03 666.29 165.02
  C 679.18 164.63 681.31 167.70 684.58 179.21
  Q 686.58 186.24 688.38 193.36
  A 1.30 1.29 52.6 0 1 688.26 194.29
  C 683.62 202.90 676.88 214.54 669.15 220.66
  A 2.19 2.18 -45.3 0 1 666.46 220.68
  C 664.18 218.93 661.09 216.48 658.10 217.19
  C 653.55 218.26 651.77 224.32 655.23 227.54
  C 667.52 238.97 685.07 207.28 689.34 199.70
  A 0.47 0.47 0.0 0 1 690.21 199.84"
/>
<path stroke="#8285a6" vector-effect="non-scaling-stroke" d="
  M 974.97 180.77
  C 972.70 172.47 971.13 164.12 964.79 157.48
  Q 964.40 157.08 963.85 157.19
  L 944.31 161.01
  Q 943.75 161.12 943.75 161.69
  L 943.75 164.50
  Q 943.75 165.03 944.29 165.02
  C 957.21 164.63 959.27 167.71 962.60 179.20
  Q 964.65 186.30 966.36 193.46
  Q 966.48 193.95 966.24 194.39
  C 961.53 202.87 954.84 214.66 947.14 220.64
  A 2.20 2.19 44.3 0 1 944.47 220.67
  C 942.17 218.96 939.08 216.49 936.10 217.19
  C 926.55 219.44 932.89 234.27 943.77 228.72
  C 953.67 223.67 962.09 209.30 967.23 199.69
  A 0.49 0.49 0.0 0 1 968.14 199.82
  Q 969.83 208.29 972.11 216.91
  C 973.34 221.59 974.59 229.08 980.49 229.88
  C 987.57 230.83 997.84 217.26 1000.70 211.77
  Q 1000.97 211.26 1000.48 210.97
  L 999.14 210.17
  Q 998.45 209.76 998.08 210.47
  Q 994.78 216.69 989.37 220.30
  C 984.75 223.39 983.36 215.49 982.66 212.56
  Q 979.62 199.77 976.63 186.93
  Q 976.52 186.45 976.74 186.02
  C 979.69 180.39 986.11 169.50 992.18 167.93
  A 1.61 1.58 47.4 0 1 993.15 167.98
  C 995.69 168.94 998.75 170.97 1001.20 170.97
  C 1011.35 170.98 1007.00 150.93 994.41 158.64
  C 985.51 164.09 980.93 172.22 975.57 180.86
  A 0.33 0.33 0.0 0 1 974.97 180.77"
/>
<path stroke="#8285a6" vector-effect="non-scaling-stroke" d="
  M 895.24 183.44
  A 0.44 0.44 0.0 0 0 894.80 183.00
  L 813.30 183.00
  A 0.44 0.44 0.0 0 0 812.86 183.44
  L 812.86 190.56
  A 0.44 0.44 0.0 0 0 813.30 191.00
  L 894.80 191.00
  A 0.44 0.44 0.0 0 0 895.24 190.56
  L 895.24 183.44"
/>
<path stroke="#8285a6" vector-effect="non-scaling-stroke" d="
  M 752.5798 226.4557
  A 3.28 2.45 -0.6 0 0 749.2743 224.0401
  A 3.28 2.45 -0.6 0 0 746.0202 226.5243
  A 3.28 2.45 -0.6 0 0 749.3257 228.9399
  A 3.28 2.45 -0.6 0 0 752.5798 226.4557"
/>
<path stroke="#8285a6" vector-effect="non-scaling-stroke" d="
  M 745.09 265.09
  A 1.13 1.13 0.0 0 1 743.13 264.07
  L 751.20 236.72
  A 0.42 0.41 -86.9 0 0 750.73 236.19
  L 739.88 238.05
  A 0.39 0.39 0.0 0 0 739.85 238.82
  Q 740.98 239.10 742.09 238.66
  A 1.90 1.90 0.0 0 1 744.67 240.69
  C 743.65 248.05 740.03 256.60 737.81 263.81
  C 737.06 266.25 737.90 269.16 740.68 269.01
  C 743.84 268.84 747.78 264.22 749.33 261.72
  Q 749.52 261.42 749.44 261.20
  Q 749.33 260.90 748.92 260.81
  A 0.60 0.58 24.1 0 0 748.34 261.02
  L 745.09 265.09"
/>
<path stroke="#8285a6" vector-effect="non-scaling-stroke" d="
  M 534.99 290.68
  C 537.85 289.59 541.00 289.39 541.01 293.57
  Q 541.06 310.66 540.97 327.74
  C 540.94 332.53 538.49 331.28 535.35 332.28
  A 0.36 0.36 0.0 0 0 535.46 332.99
  Q 543.88 333.02 552.03 332.98
  Q 552.23 332.98 552.32 332.89
  Q 552.42 332.79 552.46 332.60
  Q 552.54 332.10 552.03 332.12
  Q 549.38 332.19 547.21 330.76
  A 1.24 1.22 16.7 0 1 546.66 329.76
  L 546.48 285.52
  A 0.56 0.56 0.0 0 0 545.70 285.00
  Q 539.90 287.50 534.67 289.90
  Q 534.44 290.01 534.47 290.35
  Q 534.51 290.86 534.99 290.68"
/>
<path stroke="#8285a6" vector-effect="non-scaling-stroke" d="
  M 57.23 331.52
  C 39.93 335.57 24.65 343.55 15.14 359.17
  C -1.13 385.92 16.42 410.47 46.56 397.81
  C 62.97 390.91 77.26 376.84 81.65 359.30
  C 87.72 335.02 65.75 325.95 52.01 312.29
  C 36.90 297.29 68.88 284.13 77.19 297.29
  Q 79.38 300.76 81.42 304.32
  C 85.84 312.06 95.07 305.98 95.70 299.34
  Q 96.26 293.48 90.43 290.74
  C 77.08 284.46 54.88 285.20 44.94 298.20
  C 35.69 310.30 50.32 322.48 57.47 330.75
  A 0.48 0.47 62.7 0 1 57.23 331.52"
/>
<path stroke="#8285a6" vector-effect="non-scaling-stroke" d="
  M 479.5900 291.4942
  A 3.31 2.49 -0.1 0 0 476.2757 289.0100
  A 3.31 2.49 -0.1 0 0 472.9700 291.5058
  A 3.31 2.49 -0.1 0 0 476.2843 293.9900
  A 3.31 2.49 -0.1 0 0 479.5900 291.4942"
/>
<path stroke="#8285a6" vector-effect="non-scaling-stroke" d="
  M 469.71 303.51
  A 1.83 1.83 0.0 0 1 471.84 305.83
  Q 468.34 317.51 464.71 329.41
  C 464.24 330.95 464.44 332.63 465.83 333.43
  C 469.59 335.61 474.57 329.54 476.32 326.70
  Q 476.66 326.15 476.03 326.02
  Q 475.89 325.99 475.74 325.99
  Q 475.53 325.99 475.39 326.15
  L 471.98 330.07
  A 1.09 1.09 0.0 0 1 470.12 329.04
  L 478.31 301.51
  A 0.31 0.30 -86.3 0 0 477.97 301.12
  L 466.89 303.04
  A 0.24 0.24 0.0 0 0 466.70 303.35
  Q 466.77 303.56 466.85 303.79
  A 0.39 0.38 73.2 0 0 467.29 304.03
  L 469.71 303.51"
/>
<path stroke="#8285a6" vector-effect="non-scaling-stroke" d="
  M 525.76 307.60
  A 0.60 0.60 0.0 0 0 525.16 307.00
  L 491.10 307.00
  A 0.60 0.60 0.0 0 0 490.50 307.60
  L 490.50 309.40
  A 0.60 0.60 0.0 0 0 491.10 310.00
  L 525.16 310.00
  A 0.60 0.60 0.0 0 0 525.76 309.40
  L 525.76 307.60"
/>
<path stroke="#8285a6" vector-effect="non-scaling-stroke" d="
  M 525.81 320.50
  A 0.50 0.50 0.0 0 0 525.31 320.00
  L 490.99 320.00
  A 0.50 0.50 0.0 0 0 490.49 320.50
  L 490.49 322.50
  A 0.50 0.50 0.0 0 0 490.99 323.00
  L 525.31 323.00
  A 0.50 0.50 0.0 0 0 525.81 322.50
  L 525.81 320.50"
/>
<path stroke="#8285a6" vector-effect="non-scaling-stroke" d="
  M 282.24 340.36
  A 0.36 0.36 0.0 0 0 281.88 340.00
  L 200.28 340.00
  A 0.36 0.36 0.0 0 0 199.92 340.36
  L 199.92 347.64
  A 0.36 0.36 0.0 0 0 200.28 348.00
  L 281.88 348.00
  A 0.36 0.36 0.0 0 0 282.24 347.64
  L 282.24 340.36"
/>
<path stroke="#8285a6" vector-effect="non-scaling-stroke" d="
  M 438.44 361.96
  Q 438.57 362.00 438.75 362.00
  Q 789.82 362.00 1140.87 362.00
  A 1.81 1.80 11.6 0 0 1142.53 360.91
  C 1143.80 357.94 1141.92 357.00 1139.34 357.00
  Q 789.04 357.00 438.75 357.16
  C 435.02 357.16 435.64 361.84 437.90 361.83
  Q 437.95 361.83 438.44 361.96"
/>
<path stroke="#8285a6" vector-effect="non-scaling-stroke" d="
  M 282.19 369.40
  A 0.40 0.40 0.0 0 0 281.79 369.00
  L 200.25 369.00
  A 0.40 0.40 0.0 0 0 199.85 369.40
  L 199.85 376.60
  A 0.40 0.40 0.0 0 0 200.25 377.00
  L 281.79 377.00
  A 0.40 0.40 0.0 0 0 282.19 376.60
  L 282.19 369.40"
/>
<path stroke="#8285a6" vector-effect="non-scaling-stroke" d="
  M 113.55 426.75
  C 114.43 430.45 115.14 438.46 119.15 440.05
  A 1.19 1.19 0.0 0 0 120.20 439.95
  Q 125.02 436.94 127.69 431.92
  A 0.48 0.48 0.0 0 0 127.17 431.23
  C 126.34 431.41 124.01 434.98 122.56 435.80
  A 1.31 1.31 0.0 0 1 120.64 434.97
  L 117.21 421.01
  Q 117.07 420.40 117.34 419.84
  Q 119.35 415.74 122.58 412.50
  A 2.32 2.32 0.0 0 1 125.58 412.26
  C 129.60 415.18 132.74 409.02 128.57 407.30
  C 124.31 405.53 119.13 413.27 117.59 416.25
  Q 116.50 418.34 115.98 416.04
  Q 114.92 411.37 112.30 407.44
  A 0.77 0.76 -24.1 0 0 111.48 407.13
  Q 107.61 408.07 103.76 409.04
  Q 102.73 409.30 102.80 410.14
  A 1.05 1.05 0.0 0 0 104.00 411.08
  C 111.12 410.02 111.63 418.52 112.73 423.42
  Q 112.86 424.05 112.51 424.58
  L 105.18 435.62
  A 1.53 1.53 0.0 0 1 102.54 435.47
  Q 101.47 433.37 99.23 434.30
  C 94.63 436.20 100.05 443.72 105.65 437.35
  Q 109.85 432.58 112.89 426.67
  A 0.36 0.35 51.6 0 1 113.55 426.75"
/>
<path stroke="#8285a6" vector-effect="non-scaling-stroke" d="
  M 621.07 429.57
  C 586.45 467.49 594.05 534.21 642.05 557.58
  Q 643.90 558.48 642.75 557.00
  Q 642.27 556.38 642.64 555.75
  A 0.75 0.75 0.0 0 0 642.41 554.73
  Q 624.13 542.73 618.98 522.76
  Q 611.50 493.79 616.23 461.69
  C 618.98 443.03 625.62 427.01 642.24 416.99
  Q 642.66 416.74 642.61 416.24
  L 642.46 414.73
  Q 642.41 414.23 641.95 414.44
  Q 629.78 420.02 621.07 429.57"
/>
<path stroke="#8285a6" vector-effect="non-scaling-stroke" d="
  M 937.19 417.56
  C 952.89 428.62 959.64 442.22 962.55 460.99
  C 966.10 483.93 965.80 512.28 956.43 533.42
  Q 950.54 546.74 936.97 554.71
  Q 936.50 554.98 936.50 555.53
  L 936.50 557.19
  Q 936.50 557.87 937.12 557.59
  C 956.83 548.44 971.06 529.54 976.45 508.94
  C 985.93 472.71 972.25 431.68 937.17 414.52
  Q 936.86 414.37 936.71 414.68
  Q 935.81 416.60 937.19 417.56"
/>
<path stroke="#8285a6" vector-effect="non-scaling-stroke" d="
  M 885.69 429.68
  C 897.25 423.86 899.30 430.98 899.31 440.75
  Q 899.36 476.66 899.15 512.56
  C 899.10 521.15 893.60 522.01 886.32 521.99
  Q 885.72 521.99 885.74 522.59
  L 885.78 523.62
  A 0.39 0.39 0.0 0 0 886.17 524.00
  Q 905.39 524.01 924.43 523.99
  Q 925.06 523.99 925.33 523.69
  Q 925.71 523.24 925.45 522.49
  A 0.75 0.74 -9.0 0 0 924.76 521.99
  C 918.37 521.87 912.38 521.14 912.27 514.00
  Q 911.77 481.48 912.09 448.97
  C 912.18 440.49 911.73 427.89 912.28 417.43
  A 1.63 1.63 0.0 0 0 909.97 415.87
  L 884.26 427.83
  A 0.56 0.56 0.0 0 0 884.10 428.73
  L 884.93 429.56
  A 0.67 0.66 53.7 0 0 885.69 429.68"
/>
<path stroke="#8285a6" vector-effect="non-scaling-stroke" d="
  M 712.07 464.61
  Q 712.80 466.93 712.11 469.04
  Q 704.96 490.62 697.96 512.23
  C 695.74 519.08 696.36 529.60 706.95 524.87
  C 713.36 522.00 719.03 515.09 723.06 508.97
  Q 723.42 508.41 722.84 508.08
  L 721.67 507.40
  A 0.64 0.64 0.0 0 0 720.82 507.60
  Q 717.35 512.92 712.77 517.32
  A 2.00 1.99 54.9 0 1 709.60 516.76
  Q 709.01 515.58 709.53 514.01
  Q 716.29 493.59 723.03 473.17
  C 725.33 466.20 726.48 456.51 718.48 453.73
  C 703.09 448.37 683.20 477.06 676.16 487.33
  A 0.38 0.38 0.0 0 1 675.49 487.01
  L 685.22 453.76
  Q 685.43 453.07 684.71 453.17
  L 659.24 456.99
  Q 658.79 457.06 658.81 457.51
  L 658.90 459.43
  A 0.59 0.58 81.2 0 0 659.63 459.97
  C 664.50 458.71 671.95 458.72 670.10 465.54
  Q 666.38 479.29 653.28 523.35
  Q 653.09 524.00 653.76 524.00
  L 664.27 524.00
  A 0.82 0.82 0.0 0 0 665.07 523.37
  C 667.63 512.51 671.29 502.77 677.37 493.07
  C 683.25 483.70 689.44 474.67 697.82 467.33
  C 700.49 464.99 710.06 458.24 712.07 464.61"
/>
<path stroke="#8285a6" vector-effect="non-scaling-stroke" d="
  M 848.24 479.46
  A 0.46 0.46 0.0 0 0 847.78 479.00
  L 766.24 479.00
  A 0.46 0.46 0.0 0 0 765.78 479.46
  L 765.78 486.54
  A 0.46 0.46 0.0 0 0 766.24 487.00
  L 847.78 487.00
  A 0.46 0.46 0.0 0 0 848.24 486.54
  L 848.24 479.46"
/>
<path stroke="#8285a6" vector-effect="non-scaling-stroke" d="
  M 28.54 393.68
  C 36.69 400.26 49.78 392.43 55.32 385.81
  Q 66.15 372.87 67.65 356.52
  C 68.34 348.97 64.55 341.66 60.67 335.58
  Q 60.38 335.13 59.86 335.21
  C 37.85 338.80 25.82 356.99 22.59 377.70
  Q 21.04 387.62 28.54 393.68"
/>
</g>

<path fill="#8285a6" d="
  M 1151.00 19.01
  L 1151.00 24.01
  L 428.58 24.01
  Q 428.07 24.01 428.01 24.51
  Q 427.40 29.38 427.06 34.18
  Q 408.75 297.41 390.28 560.63
  C 390.09 563.25 390.12 565.45 388.29 567.40
  C 384.01 571.99 379.98 567.78 379.28 563.08
  Q 364.18 462.03 348.94 360.57
  A 0.49 0.49 0.0 0 0 348.21 360.22
  L 333.22 368.95
  A 2.03 2.03 0.0 0 1 330.24 367.74
  C 329.46 364.95 330.50 364.84 332.75 363.50
  Q 345.03 356.17 352.29 352.28
  C 355.51 350.56 358.32 356.25 358.67 358.56
  Q 372.50 450.88 386.28 542.97
  A 0.30 0.30 0.0 0 0 386.88 542.94
  C 387.05 539.52 386.96 535.92 387.19 532.69
  Q 405.03 277.88 422.90 23.07
  Q 423.01 21.41 423.45 19.77
  A 0.72 0.72 0.0 0 1 424.15 19.23
  L 1151.00 19.01
  Z"
/>
<path fill="#8285a6" d="
  M 503.03 79.87
  C 506.08 75.82 509.58 70.55 513.54 67.51
  C 520.82 61.93 525.71 66.58 523.10 74.66
  Q 520.12 83.86 516.97 92.86
  A 1.02 1.01 -10.3 0 0 518.58 93.97
  Q 520.40 92.45 521.93 90.20
  Q 522.18 89.82 522.47 89.76
  Q 522.69 89.71 522.87 89.78
  Q 523.28 89.95 523.06 90.34
  Q 520.33 95.10 515.85 97.62
  C 512.45 99.53 511.04 95.67 511.87 92.93
  Q 515.05 82.43 518.51 72.03
  A 2.82 2.81 32.4 0 0 517.87 69.19
  Q 517.55 68.86 516.61 68.91
  C 508.79 69.31 499.41 90.27 497.83 96.38
  Q 497.67 97.01 497.02 97.01
  L 493.17 96.99
  A 0.52 0.52 0.0 0 1 492.68 96.32
  L 500.51 70.08
  A 1.83 1.83 0.0 0 0 498.67 67.73
  L 495.56 67.87
  Q 495.37 67.88 495.23 67.76
  L 495.00 67.56
  A 0.23 0.23 0.0 0 1 495.11 67.16
  L 506.18 65.17
  Q 506.87 65.05 506.68 65.72
  L 502.67 79.70
  Q 502.37 80.75 503.03 79.87
  Z"
/>
<rect fill="#8285a6" x="930.08" y="81.01" width="77.70" height="4.98" rx="2.06"/>
<path fill="#8285a6" d="
  M 1088.20 151.98
  C 1094.24 152.04 1106.47 153.93 1109.86 148.11
  A 0.51 0.51 0.0 0 1 1110.78 148.54
  L 1107.97 156.49
  Q 1107.79 157.00 1107.25 157.00
  L 1081.25 157.00
  A 0.86 0.85 -65.1 0 1 1080.70 155.49
  C 1089.24 148.27 1104.80 133.77 1101.95 121.35
  C 1099.58 111.01 1086.20 112.08 1083.24 121.67
  A 0.56 0.56 0.0 0 1 1082.14 121.46
  C 1083.04 110.65 1095.42 104.81 1103.79 112.31
  C 1117.25 124.36 1095.99 143.42 1088.03 151.56
  A 0.25 0.25 0.0 0 0 1088.20 151.98
  Z"
/>
<path fill="#8285a6" d="
  M 467.74 248.97
  Q 504.37 249.06 541.00 248.98
  Q 545.41 248.97 552.22 246.69
  C 560.37 243.96 564.18 236.49 565.83 228.34
  A 0.79 0.79 0.0 0 1 566.73 227.72
  L 568.99 228.06
  Q 569.54 228.14 569.46 228.69
  L 564.16 263.46
  Q 564.08 264.00 563.53 264.00
  L 450.03 264.00
  A 1.66 1.65 -70.5 0 1 448.75 261.30
  L 507.16 188.88
  Q 507.49 188.47 507.16 188.05
  L 448.75 116.21
  A 1.97 1.97 0.0 0 1 450.28 113.00
  L 560.48 113.00
  A 0.51 0.51 0.0 0 1 560.99 113.48
  L 563.16 142.40
  Q 563.21 143.00 562.61 143.00
  L 560.46 143.00
  Q 559.82 143.00 559.78 142.36
  C 559.19 133.54 555.38 124.83 547.01 121.55
  Q 543.19 120.05 534.67 120.01
  Q 504.05 119.86 473.45 120.07
  Q 472.80 120.07 473.21 120.58
  L 521.91 180.49
  Q 522.24 180.89 521.91 181.30
  L 467.48 248.44
  Q 467.05 248.97 467.74 248.97
  Z"
/>
<path fill="#8285a6" d="
  M 643.06 261.55
  C 586.69 234.82 586.44 144.67 643.04 118.39
  Q 644.93 117.51 643.70 118.94
  Q 643.27 119.43 643.62 119.96
  A 0.83 0.83 0.0 0 1 643.33 121.14
  C 628.87 129.18 621.47 143.41 618.36 159.31
  Q 612.13 191.23 619.11 222.52
  C 622.70 238.59 629.73 249.23 642.95 258.53
  Q 644.30 259.47 643.59 261.34
  Q 643.44 261.73 643.06 261.55
  Z"
/>
<path fill="#8285a6" d="
  M 1037.96 230.72
  C 1045.48 206.62 1045.25 177.39 1039.24 153.75
  Q 1034.12 133.59 1015.93 121.50
  Q 1015.50 121.21 1015.50 120.69
  L 1015.50 118.79
  Q 1015.50 118.13 1016.09 118.42
  C 1048.87 134.66 1063.87 172.46 1056.76 207.26
  C 1051.96 230.75 1037.85 251.44 1016.10 261.57
  Q 1015.50 261.85 1015.50 261.19
  L 1015.50 259.55
  Q 1015.50 259.10 1015.89 258.87
  Q 1032.23 249.06 1037.96 230.72
  Z"
/>
<path fill="#8285a6" d="
  M 690.21 199.84
  A 0.47 0.47 0.0 0 0 689.34 199.70
  C 685.07 207.28 667.52 238.97 655.23 227.54
  C 651.77 224.32 653.55 218.26 658.10 217.19
  C 661.09 216.48 664.18 218.93 666.46 220.68
  A 2.19 2.18 -45.3 0 0 669.15 220.66
  C 676.88 214.54 683.62 202.90 688.26 194.29
  A 1.30 1.29 52.6 0 0 688.38 193.36
  Q 686.58 186.24 684.58 179.21
  C 681.31 167.70 679.18 164.63 666.29 165.02
  Q 665.75 165.03 665.75 164.50
  L 665.75 161.69
  Q 665.75 161.11 666.31 161.00
  L 685.87 157.18
  Q 686.47 157.06 686.88 157.51
  C 692.87 163.99 694.71 172.08 696.81 180.33
  A 0.57 0.56 53.2 0 0 697.84 180.48
  C 702.43 172.83 710.76 158.70 720.24 157.15
  C 727.82 155.91 732.41 166.25 726.13 170.01
  C 721.94 172.51 718.55 169.00 714.55 167.89
  A 1.44 1.40 39.5 0 0 713.57 167.97
  C 707.31 170.79 701.99 180.04 698.74 185.83
  Q 698.49 186.27 698.60 186.77
  Q 701.84 201.00 705.43 215.16
  C 706.12 217.86 707.51 222.87 711.22 220.41
  Q 716.99 216.58 720.15 210.32
  A 0.60 0.59 -61.0 0 1 720.98 210.08
  L 722.47 210.96
  Q 722.98 211.27 722.71 211.79
  C 719.03 218.81 701.44 241.89 695.54 222.04
  Q 692.25 210.99 690.21 199.84
  Z"
/>
<path fill="#8285a6" d="
  M 974.97 180.77
  A 0.33 0.33 0.0 0 0 975.57 180.86
  C 980.93 172.22 985.51 164.09 994.41 158.64
  C 1007.00 150.93 1011.35 170.98 1001.20 170.97
  C 998.75 170.97 995.69 168.94 993.15 167.98
  A 1.61 1.58 47.4 0 0 992.18 167.93
  C 986.11 169.50 979.69 180.39 976.74 186.02
  Q 976.52 186.45 976.63 186.93
  Q 979.62 199.77 982.66 212.56
  C 983.36 215.49 984.75 223.39 989.37 220.30
  Q 994.78 216.69 998.08 210.47
  Q 998.45 209.76 999.14 210.17
  L 1000.48 210.97
  Q 1000.97 211.26 1000.70 211.77
  C 997.84 217.26 987.57 230.83 980.49 229.88
  C 974.59 229.08 973.34 221.59 972.11 216.91
  Q 969.83 208.29 968.14 199.82
  A 0.49 0.49 0.0 0 0 967.23 199.69
  C 962.09 209.30 953.67 223.67 943.77 228.72
  C 932.89 234.27 926.55 219.44 936.10 217.19
  C 939.08 216.49 942.17 218.96 944.47 220.67
  A 2.20 2.19 44.3 0 0 947.14 220.64
  C 954.84 214.66 961.53 202.87 966.24 194.39
  Q 966.48 193.95 966.36 193.46
  Q 964.65 186.30 962.60 179.20
  C 959.27 167.71 957.21 164.63 944.29 165.02
  Q 943.75 165.03 943.75 164.50
  L 943.75 161.69
  Q 943.75 161.12 944.31 161.01
  L 963.85 157.19
  Q 964.40 157.08 964.79 157.48
  C 971.13 164.12 972.70 172.47 974.97 180.77
  Z"
/>
<rect fill="#8285a6" x="812.86" y="183.00" width="82.38" height="8.00" rx="0.44"/>
<ellipse fill="#8285a6" cx="0.00" cy="0.00" transform="translate(749.30,226.49) rotate(-0.6)" rx="3.28" ry="2.45"/>
<path fill="#8285a6" d="
  M 745.09 265.09
  L 748.34 261.02
  A 0.60 0.58 24.1 0 1 748.92 260.81
  Q 749.33 260.90 749.44 261.20
  Q 749.52 261.42 749.33 261.72
  C 747.78 264.22 743.84 268.84 740.68 269.01
  C 737.90 269.16 737.06 266.25 737.81 263.81
  C 740.03 256.60 743.65 248.05 744.67 240.69
  A 1.90 1.90 0.0 0 0 742.09 238.66
  Q 740.98 239.10 739.85 238.82
  A 0.39 0.39 0.0 0 1 739.88 238.05
  L 750.73 236.19
  A 0.42 0.41 -86.9 0 1 751.20 236.72
  L 743.13 264.07
  A 1.13 1.13 0.0 0 0 745.09 265.09
  Z"
/>
<path fill="#8285a6" d="
  M 541.01 293.57
  C 541.00 289.39 537.85 289.59 534.99 290.68
  Q 534.51 290.86 534.47 290.35
  Q 534.44 290.01 534.67 289.90
  Q 539.90 287.50 545.70 285.00
  A 0.56 0.56 0.0 0 1 546.48 285.52
  L 546.66 329.76
  A 1.24 1.22 16.7 0 0 547.21 330.76
  Q 549.38 332.19 552.03 332.12
  Q 552.54 332.10 552.46 332.60
  Q 552.42 332.79 552.32 332.89
  Q 552.23 332.98 552.03 332.98
  Q 543.88 333.02 535.46 332.99
  A 0.36 0.36 0.0 0 1 535.35 332.28
  C 538.49 331.28 540.94 332.53 540.97 327.74
  Q 541.06 310.66 541.01 293.57
  Z"
/>
<path fill="#8285a6" d="
  M 57.23 331.52
  A 0.48 0.47 62.7 0 0 57.47 330.75
  C 50.32 322.48 35.69 310.30 44.94 298.20
  C 54.88 285.20 77.08 284.46 90.43 290.74
  Q 96.26 293.48 95.70 299.34
  C 95.07 305.98 85.84 312.06 81.42 304.32
  Q 79.38 300.76 77.19 297.29
  C 68.88 284.13 36.90 297.29 52.01 312.29
  C 65.75 325.95 87.72 335.02 81.65 359.30
  C 77.26 376.84 62.97 390.91 46.56 397.81
  C 16.42 410.47 -1.13 385.92 15.14 359.17
  C 24.65 343.55 39.93 335.57 57.23 331.52
  Z
  M 28.54 393.68
  C 36.69 400.26 49.78 392.43 55.32 385.81
  Q 66.15 372.87 67.65 356.52
  C 68.34 348.97 64.55 341.66 60.67 335.58
  Q 60.38 335.13 59.86 335.21
  C 37.85 338.80 25.82 356.99 22.59 377.70
  Q 21.04 387.62 28.54 393.68
  Z"
/>
<ellipse fill="#8285a6" cx="0.00" cy="0.00" transform="translate(476.28,291.50) rotate(-0.1)" rx="3.31" ry="2.49"/>
<path fill="#8285a6" d="
  M 469.71 303.51
  L 467.29 304.03
  A 0.39 0.38 73.2 0 1 466.85 303.79
  Q 466.77 303.56 466.70 303.35
  A 0.24 0.24 0.0 0 1 466.89 303.04
  L 477.97 301.12
  A 0.31 0.30 -86.3 0 1 478.31 301.51
  L 470.12 329.04
  A 1.09 1.09 0.0 0 0 471.98 330.07
  L 475.39 326.15
  Q 475.53 325.99 475.74 325.99
  Q 475.89 325.99 476.03 326.02
  Q 476.66 326.15 476.32 326.70
  C 474.57 329.54 469.59 335.61 465.83 333.43
  C 464.44 332.63 464.24 330.95 464.71 329.41
  Q 468.34 317.51 471.84 305.83
  A 1.83 1.83 0.0 0 0 469.71 303.51
  Z"
/>
<rect fill="#8285a6" x="490.50" y="307.00" width="35.26" height="3.00" rx="0.60"/>
<rect fill="#8285a6" x="490.49" y="320.00" width="35.32" height="3.00" rx="0.50"/>
<rect fill="#8285a6" x="199.92" y="340.00" width="82.32" height="8.00" rx="0.36"/>
<path fill="#8285a6" d="
  M 437.90 361.83
  C 435.64 361.84 435.02 357.16 438.75 357.16
  Q 789.04 357.00 1139.34 357.00
  C 1141.92 357.00 1143.80 357.94 1142.53 360.91
  A 1.81 1.80 11.6 0 1 1140.87 362.00
  Q 789.82 362.00 438.75 362.00
  Q 438.57 362.00 438.44 361.96
  Q 437.95 361.83 437.90 361.83
  Z"
/>
<rect fill="#8285a6" x="199.85" y="369.00" width="82.34" height="8.00" rx="0.40"/>
<path fill="#8285a6" d="
  M 113.55 426.75
  A 0.36 0.35 51.6 0 0 112.89 426.67
  Q 109.85 432.58 105.65 437.35
  C 100.05 443.72 94.63 436.20 99.23 434.30
  Q 101.47 433.37 102.54 435.47
  A 1.53 1.53 0.0 0 0 105.18 435.62
  L 112.51 424.58
  Q 112.86 424.05 112.73 423.42
  C 111.63 418.52 111.12 410.02 104.00 411.08
  A 1.05 1.05 0.0 0 1 102.80 410.14
  Q 102.73 409.30 103.76 409.04
  Q 107.61 408.07 111.48 407.13
  A 0.77 0.76 -24.1 0 1 112.30 407.44
  Q 114.92 411.37 115.98 416.04
  Q 116.50 418.34 117.59 416.25
  C 119.13 413.27 124.31 405.53 128.57 407.30
  C 132.74 409.02 129.60 415.18 125.58 412.26
  A 2.32 2.32 0.0 0 0 122.58 412.50
  Q 119.35 415.74 117.34 419.84
  Q 117.07 420.40 117.21 421.01
  L 120.64 434.97
  A 1.31 1.31 0.0 0 0 122.56 435.80
  C 124.01 434.98 126.34 431.41 127.17 431.23
  A 0.48 0.48 0.0 0 1 127.69 431.92
  Q 125.02 436.94 120.20 439.95
  A 1.19 1.19 0.0 0 1 119.15 440.05
  C 115.14 438.46 114.43 430.45 113.55 426.75
  Z"
/>
<path fill="#8285a6" d="
  M 642.05 557.58
  C 594.05 534.21 586.45 467.49 621.07 429.57
  Q 629.78 420.02 641.95 414.44
  Q 642.41 414.23 642.46 414.73
  L 642.61 416.24
  Q 642.66 416.74 642.24 416.99
  C 625.62 427.01 618.98 443.03 616.23 461.69
  Q 611.50 493.79 618.98 522.76
  Q 624.13 542.73 642.41 554.73
  A 0.75 0.75 0.0 0 1 642.64 555.75
  Q 642.27 556.38 642.75 557.00
  Q 643.90 558.48 642.05 557.58
  Z"
/>
<path fill="#8285a6" d="
  M 937.19 417.56
  Q 935.81 416.60 936.71 414.68
  Q 936.86 414.37 937.17 414.52
  C 972.25 431.68 985.93 472.71 976.45 508.94
  C 971.06 529.54 956.83 548.44 937.12 557.59
  Q 936.50 557.87 936.50 557.19
  L 936.50 555.53
  Q 936.50 554.98 936.97 554.71
  Q 950.54 546.74 956.43 533.42
  C 965.80 512.28 966.10 483.93 962.55 460.99
  C 959.64 442.22 952.89 428.62 937.19 417.56
  Z"
/>
<path fill="#8285a6" d="
  M 899.31 440.75
  C 899.30 430.98 897.25 423.86 885.69 429.68
  A 0.67 0.66 53.7 0 1 884.93 429.56
  L 884.10 428.73
  A 0.56 0.56 0.0 0 1 884.26 427.83
  L 909.97 415.87
  A 1.63 1.63 0.0 0 1 912.28 417.43
  C 911.73 427.89 912.18 440.49 912.09 448.97
  Q 911.77 481.48 912.27 514.00
  C 912.38 521.14 918.37 521.87 924.76 521.99
  A 0.75 0.74 -9.0 0 1 925.45 522.49
  Q 925.71 523.24 925.33 523.69
  Q 925.06 523.99 924.43 523.99
  Q 905.39 524.01 886.17 524.00
  A 0.39 0.39 0.0 0 1 885.78 523.62
  L 885.74 522.59
  Q 885.72 521.99 886.32 521.99
  C 893.60 522.01 899.10 521.15 899.15 512.56
  Q 899.36 476.66 899.31 440.75
  Z"
/>
<path fill="#8285a6" d="
  M 712.07 464.61
  C 710.06 458.24 700.49 464.99 697.82 467.33
  C 689.44 474.67 683.25 483.70 677.37 493.07
  C 671.29 502.77 667.63 512.51 665.07 523.37
  A 0.82 0.82 0.0 0 1 664.27 524.00
  L 653.76 524.00
  Q 653.09 524.00 653.28 523.35
  Q 666.38 479.29 670.10 465.54
  C 671.95 458.72 664.50 458.71 659.63 459.97
  A 0.59 0.58 81.2 0 1 658.90 459.43
  L 658.81 457.51
  Q 658.79 457.06 659.24 456.99
  L 684.71 453.17
  Q 685.43 453.07 685.22 453.76
  L 675.49 487.01
  A 0.38 0.38 0.0 0 0 676.16 487.33
  C 683.20 477.06 703.09 448.37 718.48 453.73
  C 726.48 456.51 725.33 466.20 723.03 473.17
  Q 716.29 493.59 709.53 514.01
  Q 709.01 515.58 709.60 516.76
  A 2.00 1.99 54.9 0 0 712.77 517.32
  Q 717.35 512.92 720.82 507.60
  A 0.64 0.64 0.0 0 1 721.67 507.40
  L 722.84 508.08
  Q 723.42 508.41 723.06 508.97
  C 719.03 515.09 713.36 522.00 706.95 524.87
  C 696.36 529.60 695.74 519.08 697.96 512.23
  Q 704.96 490.62 712.11 469.04
  Q 712.80 466.93 712.07 464.61
  Z"
/>
<rect fill="#8285a6" x="765.78" y="479.00" width="82.46" height="8.00" rx="0.46"/>
</svg>
