<?xml version="1.0" encoding="UTF-8" standalone="no"?>
<!DOCTYPE svg PUBLIC "-//W3C//DTD SVG 1.1//EN" "http://www.w3.org/Graphics/SVG/1.1/DTD/svg11.dtd">
<svg xmlns="http://www.w3.org/2000/svg" version="1.1" viewBox="0.00 0.00 1355.00 644.00">
<g stroke-width="2.00" fill="none" stroke-linecap="butt">
<path stroke="#8285a6" vector-effect="non-scaling-stroke" d="
  M 384.58 84.00
  L 388.68 69.72
  Q 388.83 69.18 388.28 69.26
  Q 382.81 69.96 377.45 71.24
  Q 377.26 71.29 377.26 71.53
  Q 377.26 71.88 377.62 71.86
  L 380.57 71.71
  A 1.91 1.90 6.9 0 1 382.49 74.15
  L 374.76 100.01
  A 0.77 0.77 0.0 0 0 375.50 101.00
  L 379.23 101.00
  Q 379.71 101.00 379.83 100.54
  Q 382.94 88.44 390.71 79.19
  C 392.65 76.88 396.04 73.06 398.56 72.92
  Q 399.50 72.87 399.74 73.07
  A 2.65 2.64 29.4 0 1 400.54 75.93
  Q 396.97 86.70 393.70 97.49
  C 392.86 100.26 395.10 103.17 397.85 101.62
  Q 402.36 99.08 405.14 94.17
  Q 405.19 94.08 405.12 93.99
  Q 405.02 93.90 404.91 93.78
  A 0.39 0.39 0.0 0 0 404.33 93.80
  L 400.78 97.96
  A 1.08 1.08 0.0 0 1 398.94 96.89
  Q 401.38 90.02 403.74 82.99
  C 405.19 78.69 408.37 71.03 402.16 68.92
  A 1.60 1.56 45.6 0 0 401.24 68.90
  C 393.64 71.06 389.26 78.16 384.89 84.16
  Q 384.30 84.97 384.58 84.00"
/>
<path stroke="#8285a6" vector-effect="non-scaling-stroke" d="
  M 892.77 86.94
  A 1.94 1.94 0.0 0 0 890.83 85.00
  L 818.17 85.00
  A 1.94 1.94 0.0 0 0 816.23 86.94
  L 816.23 88.06
  A 1.94 1.94 0.0 0 0 818.17 90.00
  L 890.83 90.00
  A 1.94 1.94 0.0 0 0 892.77 88.06
  L 892.77 86.94"
/>
<path stroke="#8285a6" vector-effect="non-scaling-stroke" d="
  M 991.25 144.50
  L 991.25 113.50
  Q 991.25 113.00 990.75 113.00
  L 988.04 113.00
  Q 987.59 113.00 987.34 113.38
  Q 976.99 129.22 966.41 144.92
  Q 965.71 145.95 966.42 148.56
  Q 966.54 149.00 967.00 149.00
  L 985.25 149.00
  A 0.50 0.50 0.0 0 1 985.75 149.50
  L 985.75 160.50
  Q 985.75 161.00 986.25 161.00
  L 990.75 161.00
  Q 991.25 161.00 991.25 160.50
  L 991.25 149.50
  Q 991.25 149.00 991.75 149.00
  L 996.75 149.00
  Q 997.50 149.00 997.50 148.25
  L 997.50 145.75
  Q 997.50 145.00 996.75 145.00
  L 991.75 145.00
  Q 991.25 145.00 991.25 144.50"
/>
<path stroke="#8285a6" vector-effect="non-scaling-stroke" d="
  M 349.50 253.46
  L 403.90 186.33
  Q 404.24 185.91 403.90 185.49
  L 354.99 125.28
  A 0.16 0.16 0.0 0 1 355.11 125.02
  Q 385.65 124.96 416.24 125.03
  Q 425.67 125.05 429.42 126.60
  C 437.73 130.05 440.89 138.68 441.74 147.35
  Q 441.81 147.98 442.44 147.98
  L 444.59 148.01
  Q 445.18 148.01 445.13 147.42
  L 443.04 118.61
  A 0.67 0.66 -2.3 0 0 442.37 118.00
  L 331.29 118.00
  Q 330.90 118.00 330.82 118.38
  Q 330.33 120.81 331.82 122.64
  Q 360.53 157.82 389.16 193.04
  Q 389.50 193.46 389.16 193.88
  L 330.75 266.30
  A 1.66 1.66 0.0 0 0 332.04 269.00
  L 445.53 269.00
  Q 446.08 269.00 446.16 268.46
  L 451.45 233.69
  Q 451.54 233.09 450.94 233.01
  L 448.58 232.70
  Q 448.05 232.63 447.93 233.15
  C 444.52 247.82 436.89 253.72 421.75 253.82
  Q 385.75 254.06 349.75 254.00
  Q 349.06 254.00 349.50 253.46"
/>
<path stroke="#8285a6" vector-effect="non-scaling-stroke" d="
  M 525.65 124.26
  Q 525.85 123.90 525.69 123.58
  Q 525.48 123.14 525.04 123.35
  C 501.39 134.46 486.46 158.21 483.39 183.76
  C 479.34 217.44 493.74 251.13 524.99 266.50
  Q 525.56 266.78 525.56 266.14
  L 525.56 264.49
  Q 525.56 263.93 525.10 263.62
  C 510.70 254.00 503.72 241.38 500.38 224.19
  Q 495.05 196.82 499.53 168.95
  C 502.38 151.19 509.06 135.59 525.18 126.12
  A 0.96 0.80 -1.3 0 0 525.43 125.90
  Q 525.95 125.25 525.66 124.76
  Q 525.51 124.52 525.65 124.26"
/>
<path stroke="#8285a6" vector-effect="non-scaling-stroke" d="
  M 924.25 158.75
  C 930.62 183.78 930.83 218.52 920.50 242.44
  Q 914.91 255.35 901.00 263.65
  Q 900.50 263.95 900.50 264.53
  L 900.50 266.23
  Q 900.50 266.87 901.09 266.60
  Q 913.21 261.01 921.52 252.02
  C 956.53 214.11 949.35 147.59 901.22 123.43
  Q 900.77 123.20 900.60 123.68
  C 900.02 125.35 900.50 126.10 901.91 127.08
  Q 919.25 139.10 924.25 158.75"
/>
<path stroke="#8285a6" vector-effect="non-scaling-stroke" d="
  M 572.01 204.95
  Q 574.54 215.86 577.27 226.70
  C 578.55 231.76 583.11 237.40 588.85 233.86
  Q 599.13 227.53 604.79 216.68
  Q 605.06 216.16 604.54 215.90
  L 602.93 215.08
  Q 602.44 214.84 602.19 215.32
  C 600.51 218.57 590.81 232.68 587.94 222.04
  Q 583.87 206.93 580.63 191.62
  Q 580.53 191.14 580.78 190.71
  C 584.30 184.82 588.20 177.95 593.84 173.87
  C 597.75 171.04 601.20 176.05 605.15 175.93
  C 612.36 175.72 612.53 165.77 607.11 162.92
  C 596.36 157.27 584.08 178.86 579.75 185.56
  A 0.51 0.51 0.0 0 1 578.82 185.41
  C 576.88 177.26 574.87 168.87 568.70 162.44
  A 0.91 0.89 62.8 0 0 567.88 162.17
  L 548.20 166.00
  Q 547.75 166.09 547.75 166.55
  L 547.75 169.50
  Q 547.75 170.06 548.31 170.04
  C 556.33 169.77 562.99 170.63 565.43 179.47
  Q 568.04 188.95 570.37 198.45
  Q 570.48 198.91 570.25 199.33
  C 565.39 208.07 559.02 219.20 551.25 225.59
  A 2.29 2.28 43.9 0 1 548.40 225.64
  Q 546.39 224.09 543.80 222.70
  C 539.11 220.18 534.26 225.34 535.64 229.67
  C 537.30 234.88 543.12 236.11 547.79 233.80
  C 557.88 228.79 565.42 214.37 571.41 204.85
  Q 571.83 204.18 572.01 204.95"
/>
<path stroke="#8285a6" vector-effect="non-scaling-stroke" d="
  M 854.17 204.86
  Q 856.32 216.31 859.72 227.76
  Q 861.04 232.19 864.60 234.19
  C 872.04 238.37 883.96 221.94 886.82 216.73
  Q 887.14 216.13 886.52 215.86
  L 884.86 215.14
  Q 884.31 214.90 884.05 215.44
  C 882.58 218.43 876.70 226.66 872.80 225.93
  Q 870.98 225.60 870.47 223.96
  Q 867.10 213.28 862.69 191.53
  Q 862.59 191.07 862.83 190.65
  C 866.37 184.57 870.95 176.48 877.31 173.03
  A 1.42 1.38 -52.6 0 1 878.25 172.89
  C 882.55 173.78 886.13 177.86 890.47 174.77
  C 895.83 170.95 891.94 162.09 886.06 161.95
  C 875.77 161.69 866.41 178.18 861.79 185.54
  A 0.53 0.53 0.0 0 1 860.83 185.38
  C 858.92 177.32 856.87 168.78 850.71 162.44
  Q 850.34 162.07 849.84 162.17
  L 830.20 166.00
  Q 829.75 166.09 829.75 166.55
  L 829.75 169.50
  Q 829.75 170.06 830.31 170.04
  C 838.37 169.77 844.94 170.61 847.39 179.49
  Q 849.98 188.88 852.38 198.37
  A 1.25 1.24 -38.5 0 1 852.27 199.29
  C 848.73 205.81 839.16 222.93 832.02 226.08
  A 1.02 1.01 -39.7 0 1 831.05 225.99
  C 829.06 224.65 825.92 222.19 823.59 221.99
  C 816.44 221.38 815.46 231.41 821.99 234.34
  C 833.29 239.41 847.84 214.54 853.29 204.72
  A 0.48 0.47 -35.8 0 1 854.17 204.86"
/>
<path stroke="#8285a6" vector-effect="non-scaling-stroke" d="
  M 779.24 188.38
  A 0.38 0.38 0.0 0 0 778.86 188.00
  L 697.30 188.00
  A 0.38 0.38 0.0 0 0 696.92 188.38
  L 696.92 195.62
  A 0.38 0.38 0.0 0 0 697.30 196.00
  L 778.86 196.00
  A 0.38 0.38 0.0 0 0 779.24 195.62
  L 779.24 188.38"
/>
<path stroke="#8285a6" vector-effect="non-scaling-stroke" d="
  M 635.5897 231.4539
  A 3.30 2.49 -0.8 0 0 632.2552 229.0102
  A 3.30 2.49 -0.8 0 0 628.9903 231.5461
  A 3.30 2.49 -0.8 0 0 632.3248 233.9898
  A 3.30 2.49 -0.8 0 0 635.5897 231.4539"
/>
<path stroke="#8285a6" vector-effect="non-scaling-stroke" d="
  M 622.22 273.49
  C 625.93 275.35 630.67 269.39 632.34 266.72
  Q 632.51 266.43 632.45 266.21
  Q 632.35 265.86 631.88 265.81
  A 0.56 0.54 -64.8 0 0 631.39 266.00
  L 628.18 269.90
  A 1.14 1.14 0.0 0 1 626.20 268.85
  L 634.20 241.71
  A 0.44 0.44 0.0 0 0 633.71 241.16
  L 622.90 243.03
  A 0.29 0.28 71.0 0 0 622.70 243.45
  L 622.91 243.79
  A 0.64 0.64 0.0 0 0 623.76 244.03
  Q 625.76 242.95 627.48 244.27
  A 0.93 0.91 -65.4 0 1 627.81 245.19
  C 626.04 253.37 623.08 261.45 620.65 269.47
  Q 619.80 272.27 622.22 273.49"
/>
<path stroke="#8285a6" vector-effect="non-scaling-stroke" d="
  M 429.96 335.44
  A 1.48 1.48 0.0 0 1 428.78 334.00
  L 428.44 289.42
  A 0.52 0.52 0.0 0 0 427.71 288.95
  L 416.76 293.85
  Q 416.45 293.99 416.50 294.32
  L 416.54 294.64
  A 0.30 0.29 -19.1 0 0 416.98 294.85
  Q 419.09 293.63 421.47 294.17
  A 1.09 1.08 85.6 0 1 422.22 294.82
  Q 423.04 296.84 423.04 299.01
  Q 423.01 315.62 422.99 332.26
  Q 422.98 336.60 418.22 335.80
  Q 417.93 335.75 417.83 336.02
  Q 417.75 336.23 417.46 336.25
  A 0.44 0.33 35.2 0 0 417.70 336.99
  Q 425.97 337.02 433.94 336.97
  Q 434.28 336.97 434.37 336.73
  Q 434.51 336.36 434.13 336.28
  L 429.96 335.44"
/>
<path stroke="#8285a6" vector-effect="non-scaling-stroke" d="
  M 360.5899 295.5231
  A 3.31 2.49 0.4 0 0 357.2974 293.0101
  A 3.31 2.49 0.4 0 0 353.9701 295.4769
  A 3.31 2.49 0.4 0 0 357.2626 297.9899
  A 3.31 2.49 0.4 0 0 360.5899 295.5231"
/>
<path stroke="#8285a6" vector-effect="non-scaling-stroke" d="
  M 1229.55 341.87
  A 0.54 0.54 0.0 0 1 1229.38 340.95
  C 1236.79 334.75 1245.18 324.37 1243.17 314.31
  C 1240.84 302.67 1230.79 296.37 1219.34 296.05
  C 1205.30 295.65 1196.31 304.73 1190.71 316.90
  A 1.47 1.47 0.0 0 0 1193.23 318.40
  C 1197.38 312.86 1201.80 308.79 1208.66 307.41
  C 1229.23 303.26 1237.00 327.62 1224.75 340.75
  Q 1218.20 347.76 1206.99 349.98
  Q 1205.83 350.21 1206.36 351.56
  A 0.66 0.65 78.3 0 0 1206.98 351.97
  C 1215.61 351.80 1227.64 355.53 1232.60 363.18
  C 1241.46 376.85 1236.68 398.40 1217.78 399.08
  C 1211.56 399.30 1205.31 396.08 1198.70 393.56
  C 1189.11 389.89 1183.70 401.86 1195.53 404.65
  C 1217.92 409.93 1245.17 399.95 1248.39 374.21
  C 1250.22 359.51 1243.79 347.07 1229.55 341.87"
/>
<path stroke="#8285a6" vector-effect="non-scaling-stroke" d="
  M 77.00 345.47
  L 88.96 303.60
  Q 89.09 303.13 89.58 303.11
  Q 103.09 302.66 113.68 303.31
  Q 131.73 304.42 129.41 322.36
  Q 129.32 323.03 130.00 323.01
  L 131.28 322.98
  Q 131.81 322.96 131.95 322.45
  L 138.21 298.54
  A 0.43 0.43 0.0 0 0 137.79 298.00
  L 62.92 298.00
  Q 62.25 298.00 62.08 298.65
  L 61.63 300.34
  Q 61.45 301.01 62.13 300.99
  C 68.89 300.85 74.17 301.57 72.96 310.00
  Q 72.25 314.99 70.33 321.57
  Q 60.71 354.55 51.01 387.50
  C 48.33 396.61 44.76 401.98 35.13 400.87
  Q 34.55 400.80 34.38 401.35
  L 33.78 403.30
  Q 33.56 404.00 34.29 404.00
  L 115.00 404.00
  Q 115.46 404.00 115.61 403.57
  L 125.29 375.67
  A 0.49 0.49 0.0 0 0 124.84 375.02
  L 123.28 374.99
  A 1.01 1.00 14.7 0 0 122.38 375.51
  C 110.12 397.94 93.21 400.45 69.21 398.84
  C 64.96 398.56 62.19 397.01 63.54 392.25
  Q 69.28 371.97 75.18 351.67
  A 0.68 0.67 6.0 0 1 75.79 351.18
  C 89.49 350.43 105.57 348.49 99.54 368.23
  Q 99.34 368.88 100.03 368.93
  L 101.75 369.03
  Q 102.34 369.07 102.50 368.50
  L 113.08 331.66
  Q 113.29 330.92 112.52 330.98
  L 110.72 331.12
  A 0.77 0.75 -82.9 0 0 110.06 331.65
  C 104.91 347.70 91.05 346.29 77.35 345.95
  Q 76.87 345.94 77.00 345.47"
/>
<path stroke="#8285a6" vector-effect="non-scaling-stroke" d="
  M 351.23 307.65
  Q 353.43 308.40 352.72 310.61
  Q 349.01 322.27 345.76 333.25
  C 344.64 337.05 348.12 339.31 351.20 337.18
  Q 354.94 334.57 357.35 330.70
  Q 357.51 330.44 357.46 330.23
  Q 357.36 329.84 356.87 329.81
  A 0.76 0.75 19.3 0 0 356.22 330.12
  L 353.37 333.92
  A 1.24 1.24 0.0 0 1 351.19 332.82
  L 359.30 305.51
  Q 359.43 305.07 358.98 305.14
  L 348.09 307.00
  A 0.38 0.38 0.0 0 0 347.77 307.40
  Q 347.79 307.74 347.96 307.89
  Q 348.12 308.04 348.56 307.92
  Q 350.43 307.38 351.23 307.65"
/>
<path stroke="#8285a6" vector-effect="non-scaling-stroke" d="
  M 406.75 311.42
  A 0.42 0.42 0.0 0 0 406.33 311.00
  L 371.93 311.00
  A 0.42 0.42 0.0 0 0 371.51 311.42
  L 371.51 313.58
  A 0.42 0.42 0.0 0 0 371.93 314.00
  L 406.33 314.00
  A 0.42 0.42 0.0 0 0 406.75 313.58
  L 406.75 311.42"
/>
<path stroke="#8285a6" vector-effect="non-scaling-stroke" d="
  M 406.74 324.51
  A 0.51 0.51 0.0 0 0 406.23 324.00
  L 372.01 324.00
  A 0.51 0.51 0.0 0 0 371.50 324.51
  L 371.50 326.49
  A 0.51 0.51 0.0 0 0 372.01 327.00
  L 406.23 327.00
  A 0.51 0.51 0.0 0 0 406.74 326.49
  L 406.74 324.51"
/>
<path stroke="#8285a6" vector-effect="non-scaling-stroke" d="
  M 271.20 345.39
  A 0.39 0.39 0.0 0 0 270.81 345.00
  L 189.27 345.00
  A 0.39 0.39 0.0 0 0 188.88 345.39
  L 188.88 352.61
  A 0.39 0.39 0.0 0 0 189.27 353.00
  L 270.81 353.00
  A 0.39 0.39 0.0 0 0 271.20 352.61
  L 271.20 345.39"
/>
<path stroke="#8285a6" vector-effect="non-scaling-stroke" d="
  M 1151.24 359.44
  A 0.44 0.44 0.0 0 0 1150.80 359.00
  L 1069.30 359.00
  A 0.44 0.44 0.0 0 0 1068.86 359.44
  L 1068.86 366.56
  A 0.44 0.44 0.0 0 0 1069.30 367.00
  L 1150.80 367.00
  A 0.44 0.44 0.0 0 0 1151.24 366.56
  L 1151.24 359.44"
/>
<path stroke="#8285a6" vector-effect="non-scaling-stroke" d="
  M 318.14 366.62
  Q 319.14 366.99 320.50 366.99
  Q 673.13 367.01 1025.75 366.99
  Q 1027.89 366.99 1029.17 366.26
  Q 1029.62 366.01 1029.77 365.52
  C 1030.66 362.49 1028.89 362.00 1026.41 362.00
  Q 673.66 362.00 320.90 362.00
  C 318.28 362.00 316.53 362.31 317.16 365.49
  Q 317.33 366.33 318.14 366.62"
/>
<path stroke="#8285a6" vector-effect="non-scaling-stroke" d="
  M 271.25 374.43
  A 0.43 0.43 0.0 0 0 270.82 374.00
  L 189.30 374.00
  A 0.43 0.43 0.0 0 0 188.87 374.43
  L 188.87 381.57
  A 0.43 0.43 0.0 0 0 189.30 382.00
  L 270.82 382.00
  A 0.43 0.43 0.0 0 0 271.25 381.57
  L 271.25 374.43"
/>
<path stroke="#8285a6" vector-effect="non-scaling-stroke" d="
  M 1298.90 398.34
  A 7.41 7.41 0.0 0 0 1291.49 390.93
  A 7.41 7.41 0.0 0 0 1284.08 398.34
  A 7.41 7.41 0.0 0 0 1291.49 405.75
  A 7.41 7.41 0.0 0 0 1298.90 398.34"
/>
<path stroke="#8285a6" vector-effect="non-scaling-stroke" d="
  M 925.75 445.00
  L 930.75 445.00
  Q 931.50 445.00 931.50 444.25
  L 931.50 441.75
  Q 931.50 441.00 930.75 441.00
  L 925.75 441.00
  Q 925.25 441.00 925.25 440.50
  L 925.25 409.50
  Q 925.25 409.00 924.75 409.00
  L 922.20 409.00
  Q 921.59 409.00 921.25 409.52
  Q 911.26 424.77 901.07 439.91
  C 900.08 441.39 900.06 442.75 900.29 444.40
  Q 900.37 445.00 900.98 445.00
  L 919.25 445.00
  A 0.50 0.50 0.0 0 1 919.75 445.50
  L 919.75 456.50
  Q 919.75 457.00 920.25 457.00
  L 924.75 457.00
  Q 925.25 457.00 925.25 456.50
  L 925.25 445.50
  Q 925.25 445.00 925.75 445.00"
/>
<path stroke="#8285a6" vector-effect="non-scaling-stroke" d="
  M 842.51 460.73
  A 0.53 0.52 -27.2 0 1 842.23 461.59
  C 820.38 466.51 803.26 477.72 795.57 499.52
  C 789.94 515.48 797.39 530.00 815.03 530.91
  C 838.31 532.11 862.22 509.50 867.03 487.62
  C 871.27 468.31 856.39 458.66 842.98 447.91
  C 837.23 443.31 828.96 435.73 835.05 428.56
  Q 841.08 421.45 851.76 422.04
  C 857.49 422.36 859.86 423.61 863.05 428.63
  C 866.17 433.55 868.64 441.39 876.20 436.39
  Q 880.49 433.54 880.76 429.00
  C 881.53 415.76 854.20 416.57 847.00 417.99
  C 835.16 420.34 822.36 430.68 828.76 443.69
  C 831.39 449.05 837.90 455.55 842.51 460.73"
/>
<path stroke="#8285a6" vector-effect="non-scaling-stroke" d="
  M 397.23 479.99
  C 393.03 513.10 408.20 547.41 438.94 562.57
  Q 439.62 562.90 439.62 562.14
  L 439.63 560.57
  Q 439.63 559.94 439.10 559.60
  C 424.69 549.99 417.72 537.38 414.38 520.19
  Q 409.14 493.24 413.37 465.76
  C 416.16 447.64 422.90 431.51 439.41 422.10
  A 0.73 0.71 -20.8 0 0 439.76 421.34
  L 439.43 419.73
  Q 439.34 419.25 438.90 419.45
  C 415.23 430.35 400.45 454.61 397.23 479.99"
/>
<path stroke="#8285a6" vector-effect="non-scaling-stroke" d="
  M 736.19 422.56
  Q 754.61 435.58 759.67 456.57
  Q 765.34 480.09 762.93 507.07
  C 761.04 528.24 755.09 548.17 735.96 559.90
  Q 735.50 560.18 735.50 560.72
  L 735.50 562.19
  Q 735.50 562.86 736.10 562.58
  C 756.16 553.33 770.62 533.75 775.75 512.77
  C 784.53 476.83 770.90 436.37 736.12 419.56
  Q 735.82 419.42 735.69 419.72
  Q 734.84 421.61 736.19 422.56"
/>
<path stroke="#8285a6" vector-effect="non-scaling-stroke" d="
  M 685.77 434.67
  C 697.43 427.90 699.28 437.39 699.28 446.00
  Q 699.29 482.10 699.21 518.18
  C 699.19 526.17 693.05 526.97 686.33 526.97
  Q 685.72 526.97 685.74 527.58
  L 685.78 528.62
  A 0.40 0.39 -0.7 0 0 686.18 529.00
  L 724.97 529.00
  Q 725.50 529.00 725.50 528.47
  L 725.50 527.54
  A 0.56 0.56 0.0 0 0 724.92 526.98
  C 718.15 527.25 712.20 526.01 712.28 517.75
  C 712.47 499.44 712.16 468.19 711.98 442.66
  Q 711.90 432.26 712.22 422.40
  A 1.60 1.60 0.0 0 0 709.94 420.90
  L 684.34 432.77
  A 0.63 0.62 -35.1 0 0 684.16 433.78
  L 684.94 434.56
  Q 685.31 434.94 685.77 434.67"
/>
<path stroke="#8285a6" vector-effect="non-scaling-stroke" d="
  M 472.45 492.22
  L 482.20 458.74
  A 0.46 0.46 0.0 0 0 481.69 458.16
  L 456.40 461.98
  Q 455.87 462.06 455.85 462.60
  L 455.80 464.55
  A 0.51 0.50 -7.6 0 0 456.45 465.04
  C 459.98 463.99 466.00 463.12 467.07 467.48
  C 467.55 469.42 466.65 471.51 466.10 473.47
  Q 458.37 500.93 450.32 528.38
  Q 450.14 529.00 450.79 529.00
  L 461.27 529.00
  Q 461.89 529.00 462.05 528.40
  Q 465.47 515.17 467.78 510.30
  Q 476.34 492.25 489.59 477.39
  C 492.55 474.07 502.07 465.22 506.81 467.12
  C 511.34 468.94 508.23 477.65 506.76 481.88
  Q 501.08 498.26 495.90 514.79
  C 494.28 519.99 491.52 527.59 496.95 530.23
  C 505.04 534.17 516.32 519.64 520.02 514.12
  Q 520.40 513.57 519.85 513.18
  L 518.68 512.34
  A 0.58 0.58 0.0 0 0 517.86 512.50
  Q 514.38 517.95 509.68 522.36
  Q 509.33 522.68 508.86 522.74
  C 505.80 523.15 506.10 519.99 506.72 518.17
  Q 513.85 497.10 520.56 475.90
  C 522.61 469.42 522.40 460.25 514.86 458.37
  C 499.24 454.48 480.56 481.80 472.96 492.47
  A 0.29 0.29 0.0 0 1 472.45 492.22"
/>
<path stroke="#8285a6" vector-effect="non-scaling-stroke" d="
  M 646.24 484.48
  A 0.48 0.48 0.0 0 0 645.76 484.00
  L 564.32 484.00
  A 0.48 0.48 0.0 0 0 563.84 484.48
  L 563.84 491.52
  A 0.48 0.48 0.0 0 0 564.32 492.00
  L 645.76 492.00
  A 0.48 0.48 0.0 0 0 646.24 491.52
  L 646.24 484.48"
/>
<path stroke="#8285a6" vector-effect="non-scaling-stroke" d="
  M 890.07 541.00
  C 896.76 539.83 898.02 548.84 898.59 553.43
  Q 898.66 553.95 898.41 554.41
  Q 895.17 560.49 890.75 565.77
  A 1.04 1.04 0.0 0 1 889.30 565.90
  L 887.32 564.27
  A 1.44 1.40 60.6 0 0 886.26 563.96
  C 882.17 564.45 883.18 569.85 886.83 569.97
  C 891.66 570.13 896.87 560.20 899.02 556.61
  Q 899.34 556.08 899.50 556.68
  C 900.39 560.12 901.27 569.05 905.30 570.03
  Q 905.85 570.16 906.33 569.86
  Q 911.14 566.89 913.73 561.88
  A 0.30 0.29 37.0 0 0 913.68 561.55
  L 913.43 561.31
  A 0.38 0.38 0.0 0 0 912.87 561.33
  L 909.11 565.70
  A 1.41 1.40 58.4 0 1 906.68 565.12
  L 903.16 550.87
  Q 903.03 550.34 903.27 549.85
  Q 905.34 545.67 908.68 542.43
  A 2.21 2.20 41.3 0 1 911.54 542.25
  C 915.31 545.08 918.60 539.51 915.17 537.58
  C 910.45 534.92 904.71 543.70 903.14 547.08
  A 0.49 0.49 0.0 0 1 902.21 546.98
  Q 901.10 541.86 898.33 537.45
  Q 898.04 536.99 897.51 537.12
  Q 893.63 538.06 889.76 539.04
  Q 888.82 539.27 888.80 539.92
  A 1.09 1.08 -4.4 0 0 890.07 541.00"
/>
<path stroke="#8285a6" vector-effect="non-scaling-stroke" d="
  M 985.75 121.57
  A 0.39 0.39 0.0 0 0 985.03 121.36
  L 969.87 144.40
  A 0.39 0.39 0.0 0 0 970.19 145.00
  L 985.36 145.00
  A 0.39 0.39 0.0 0 0 985.75 144.61
  L 985.75 121.57"
/>
<path stroke="#8285a6" vector-effect="non-scaling-stroke" d="
  M 919.75 417.59
  A 0.39 0.39 0.0 0 0 919.03 417.38
  L 903.87 440.40
  A 0.39 0.39 0.0 0 0 904.19 441.00
  L 919.36 441.00
  A 0.39 0.39 0.0 0 0 919.75 440.61
  L 919.75 417.59"
/>
<path stroke="#8285a6" vector-effect="non-scaling-stroke" d="
  M 808.03 505.95
  C 806.53 513.88 809.20 525.87 819.52 526.04
  C 839.60 526.36 851.53 502.71 852.70 485.29
  C 853.16 478.51 849.17 471.06 845.67 465.57
  Q 845.39 465.13 844.88 465.22
  C 823.24 468.79 811.88 485.51 808.03 505.95"
/>
</g>
<path fill="#8285a6" d="
  M 384.89 84.16
  C 389.26 78.16 393.64 71.06 401.24 68.90
  A 1.60 1.56 45.6 0 1 402.16 68.92
  C 408.37 71.03 405.19 78.69 403.74 82.99
  Q 401.38 90.02 398.94 96.89
  A 1.08 1.08 0.0 0 0 400.78 97.96
  L 404.33 93.80
  A 0.39 0.39 0.0 0 1 404.91 93.78
  Q 405.02 93.90 405.12 93.99
  Q 405.19 94.08 405.14 94.17
  Q 402.36 99.08 397.85 101.62
  C 395.10 103.17 392.86 100.26 393.70 97.49
  Q 396.97 86.70 400.54 75.93
  A 2.65 2.64 29.4 0 0 399.74 73.07
  Q 399.50 72.87 398.56 72.92
  C 396.04 73.06 392.65 76.88 390.71 79.19
  Q 382.94 88.44 379.83 100.54
  Q 379.71 101.00 379.23 101.00
  L 375.50 101.00
  A 0.77 0.77 0.0 0 1 374.76 100.01
  L 382.49 74.15
  A 1.91 1.90 6.9 0 0 380.57 71.71
  L 377.62 71.86
  Q 377.26 71.88 377.26 71.53
  Q 377.26 71.29 377.45 71.24
  Q 382.81 69.96 388.28 69.26
  Q 388.83 69.18 388.68 69.72
  L 384.58 84.00
  Q 384.30 84.97 384.89 84.16
  Z"
/>
<rect fill="#8285a6" x="816.23" y="85.00" width="76.54" height="5.00" rx="1.94"/>
<path fill="#8285a6" d="
  M 991.75 145.00
  L 996.75 145.00
  Q 997.50 145.00 997.50 145.75
  L 997.50 148.25
  Q 997.50 149.00 996.75 149.00
  L 991.75 149.00
  Q 991.25 149.00 991.25 149.50
  L 991.25 160.50
  Q 991.25 161.00 990.75 161.00
  L 986.25 161.00
  Q 985.75 161.00 985.75 160.50
  L 985.75 149.50
  A 0.50 0.50 0.0 0 0 985.25 149.00
  L 967.00 149.00
  Q 966.54 149.00 966.42 148.56
  Q 965.71 145.95 966.41 144.92
  Q 976.99 129.22 987.34 113.38
  Q 987.59 113.00 988.04 113.00
  L 990.75 113.00
  Q 991.25 113.00 991.25 113.50
  L 991.25 144.50
  Q 991.25 145.00 991.75 145.00
  Z
  M 985.75 121.57
  A 0.39 0.39 0.0 0 0 985.03 121.36
  L 969.87 144.40
  A 0.39 0.39 0.0 0 0 970.19 145.00
  L 985.36 145.00
  A 0.39 0.39 0.0 0 0 985.75 144.61
  L 985.75 121.57
  Z"
/>
<path fill="#8285a6" d="
  M 349.75 254.00
  Q 385.75 254.06 421.75 253.82
  C 436.89 253.72 444.52 247.82 447.93 233.15
  Q 448.05 232.63 448.58 232.70
  L 450.94 233.01
  Q 451.54 233.09 451.45 233.69
  L 446.16 268.46
  Q 446.08 269.00 445.53 269.00
  L 332.04 269.00
  A 1.66 1.66 0.0 0 1 330.75 266.30
  L 389.16 193.88
  Q 389.50 193.46 389.16 193.04
  Q 360.53 157.82 331.82 122.64
  Q 330.33 120.81 330.82 118.38
  Q 330.90 118.00 331.29 118.00
  L 442.37 118.00
  A 0.67 0.66 -2.3 0 1 443.04 118.61
  L 445.13 147.42
  Q 445.18 148.01 444.59 148.01
  L 442.44 147.98
  Q 441.81 147.98 441.74 147.35
  C 440.89 138.68 437.73 130.05 429.42 126.60
  Q 425.67 125.05 416.24 125.03
  Q 385.65 124.96 355.11 125.02
  A 0.16 0.16 0.0 0 0 354.99 125.28
  L 403.90 185.49
  Q 404.24 185.91 403.90 186.33
  L 349.50 253.46
  Q 349.06 254.00 349.75 254.00
  Z"
/>
<path fill="#8285a6" d="
  M 525.66 124.76
  Q 525.95 125.25 525.43 125.90
  A 0.96 0.80 -1.3 0 1 525.18 126.12
  C 509.06 135.59 502.38 151.19 499.53 168.95
  Q 495.05 196.82 500.38 224.19
  C 503.72 241.38 510.70 254.00 525.10 263.62
  Q 525.56 263.93 525.56 264.49
  L 525.56 266.14
  Q 525.56 266.78 524.99 266.50
  C 493.74 251.13 479.34 217.44 483.39 183.76
  C 486.46 158.21 501.39 134.46 525.04 123.35
  Q 525.48 123.14 525.69 123.58
  Q 525.85 123.90 525.65 124.26
  Q 525.51 124.52 525.66 124.76
  Z"
/>
<path fill="#8285a6" d="
  M 920.50 242.44
  C 930.83 218.52 930.62 183.78 924.25 158.75
  Q 919.25 139.10 901.91 127.08
  C 900.50 126.10 900.02 125.35 900.60 123.68
  Q 900.77 123.20 901.22 123.43
  C 949.35 147.59 956.53 214.11 921.52 252.02
  Q 913.21 261.01 901.09 266.60
  Q 900.50 266.87 900.50 266.23
  L 900.50 264.53
  Q 900.50 263.95 901.00 263.65
  Q 914.91 255.35 920.50 242.44
  Z"
/>
<path fill="#8285a6" d="
  M 571.41 204.85
  C 565.42 214.37 557.88 228.79 547.79 233.80
  C 543.12 236.11 537.30 234.88 535.64 229.67
  C 534.26 225.34 539.11 220.18 543.80 222.70
  Q 546.39 224.09 548.40 225.64
  A 2.29 2.28 43.9 0 0 551.25 225.59
  C 559.02 219.20 565.39 208.07 570.25 199.33
  Q 570.48 198.91 570.37 198.45
  Q 568.04 188.95 565.43 179.47
  C 562.99 170.63 556.33 169.77 548.31 170.04
  Q 547.75 170.06 547.75 169.50
  L 547.75 166.55
  Q 547.75 166.09 548.20 166.00
  L 567.88 162.17
  A 0.91 0.89 62.8 0 1 568.70 162.44
  C 574.87 168.87 576.88 177.26 578.82 185.41
  A 0.51 0.51 0.0 0 0 579.75 185.56
  C 584.08 178.86 596.36 157.27 607.11 162.92
  C 612.53 165.77 612.36 175.72 605.15 175.93
  C 601.20 176.05 597.75 171.04 593.84 173.87
  C 588.20 177.95 584.30 184.82 580.78 190.71
  Q 580.53 191.14 580.63 191.62
  Q 583.87 206.93 587.94 222.04
  C 590.81 232.68 600.51 218.57 602.19 215.32
  Q 602.44 214.84 602.93 215.08
  L 604.54 215.90
  Q 605.06 216.16 604.79 216.68
  Q 599.13 227.53 588.85 233.86
  C 583.11 237.40 578.55 231.76 577.27 226.70
  Q 574.54 215.86 572.01 204.95
  Q 571.83 204.18 571.41 204.85
  Z"
/>
<path fill="#8285a6" d="
  M 854.17 204.86
  A 0.48 0.47 -35.8 0 0 853.29 204.72
  C 847.84 214.54 833.29 239.41 821.99 234.34
  C 815.46 231.41 816.44 221.38 823.59 221.99
  C 825.92 222.19 829.06 224.65 831.05 225.99
  A 1.02 1.01 -39.7 0 0 832.02 226.08
  C 839.16 222.93 848.73 205.81 852.27 199.29
  A 1.25 1.24 -38.5 0 0 852.38 198.37
  Q 849.98 188.88 847.39 179.49
  C 844.94 170.61 838.37 169.77 830.31 170.04
  Q 829.75 170.06 829.75 169.50
  L 829.75 166.55
  Q 829.75 166.09 830.20 166.00
  L 849.84 162.17
  Q 850.34 162.07 850.71 162.44
  C 856.87 168.78 858.92 177.32 860.83 185.38
  A 0.53 0.53 0.0 0 0 861.79 185.54
  C 866.41 178.18 875.77 161.69 886.06 161.95
  C 891.94 162.09 895.83 170.95 890.47 174.77
  C 886.13 177.86 882.55 173.78 878.25 172.89
  A 1.42 1.38 -52.6 0 0 877.31 173.03
  C 870.95 176.48 866.37 184.57 862.83 190.65
  Q 862.59 191.07 862.69 191.53
  Q 867.10 213.28 870.47 223.96
  Q 870.98 225.60 872.80 225.93
  C 876.70 226.66 882.58 218.43 884.05 215.44
  Q 884.31 214.90 884.86 215.14
  L 886.52 215.86
  Q 887.14 216.13 886.82 216.73
  C 883.96 221.94 872.04 238.37 864.60 234.19
  Q 861.04 232.19 859.72 227.76
  Q 856.32 216.31 854.17 204.86
  Z"
/>
<rect fill="#8285a6" x="696.92" y="188.00" width="82.32" height="8.00" rx="0.38"/>
<ellipse fill="#8285a6" cx="0.00" cy="0.00" transform="translate(632.29,231.50) rotate(-0.8)" rx="3.30" ry="2.49"/>
<path fill="#8285a6" d="
  M 622.22 273.49
  Q 619.80 272.27 620.65 269.47
  C 623.08 261.45 626.04 253.37 627.81 245.19
  A 0.93 0.91 -65.4 0 0 627.48 244.27
  Q 625.76 242.95 623.76 244.03
  A 0.64 0.64 0.0 0 1 622.91 243.79
  L 622.70 243.45
  A 0.29 0.28 71.0 0 1 622.90 243.03
  L 633.71 241.16
  A 0.44 0.44 0.0 0 1 634.20 241.71
  L 626.20 268.85
  A 1.14 1.14 0.0 0 0 628.18 269.90
  L 631.39 266.00
  A 0.56 0.54 -64.8 0 1 631.88 265.81
  Q 632.35 265.86 632.45 266.21
  Q 632.51 266.43 632.34 266.72
  C 630.67 269.39 625.93 275.35 622.22 273.49
  Z"
/>
<path fill="#8285a6" d="
  M 429.96 335.44
  L 434.13 336.28
  Q 434.51 336.36 434.37 336.73
  Q 434.28 336.97 433.94 336.97
  Q 425.97 337.02 417.70 336.99
  A 0.44 0.33 35.2 0 1 417.46 336.25
  Q 417.75 336.23 417.83 336.02
  Q 417.93 335.75 418.22 335.80
  Q 422.98 336.60 422.99 332.26
  Q 423.01 315.62 423.04 299.01
  Q 423.04 296.84 422.22 294.82
  A 1.09 1.08 85.6 0 0 421.47 294.17
  Q 419.09 293.63 416.98 294.85
  A 0.30 0.29 -19.1 0 1 416.54 294.64
  L 416.50 294.32
  Q 416.45 293.99 416.76 293.85
  L 427.71 288.95
  A 0.52 0.52 0.0 0 1 428.44 289.42
  L 428.78 334.00
  A 1.48 1.48 0.0 0 0 429.96 335.44
  Z"
/>
<ellipse fill="#8285a6" cx="0.00" cy="0.00" transform="translate(357.28,295.50) rotate(0.4)" rx="3.31" ry="2.49"/>
<path fill="#8285a6" d="
  M 1229.55 341.87
  C 1243.79 347.07 1250.22 359.51 1248.39 374.21
  C 1245.17 399.95 1217.92 409.93 1195.53 404.65
  C 1183.70 401.86 1189.11 389.89 1198.70 393.56
  C 1205.31 396.08 1211.56 399.30 1217.78 399.08
  C 1236.68 398.40 1241.46 376.85 1232.60 363.18
  C 1227.64 355.53 1215.61 351.80 1206.98 351.97
  A 0.66 0.65 78.3 0 1 1206.36 351.56
  Q 1205.83 350.21 1206.99 349.98
  Q 1218.20 347.76 1224.75 340.75
  C 1237.00 327.62 1229.23 303.26 1208.66 307.41
  C 1201.80 308.79 1197.38 312.86 1193.23 318.40
  A 1.47 1.47 0.0 0 1 1190.71 316.90
  C 1196.31 304.73 1205.30 295.65 1219.34 296.05
  C 1230.79 296.37 1240.84 302.67 1243.17 314.31
  C 1245.18 324.37 1236.79 334.75 1229.38 340.95
  A 0.54 0.54 0.0 0 0 1229.55 341.87
  Z"
/>
<path fill="#8285a6" d="
  M 77.35 345.95
  C 91.05 346.29 104.91 347.70 110.06 331.65
  A 0.77 0.75 -82.9 0 1 110.72 331.12
  L 112.52 330.98
  Q 113.29 330.92 113.08 331.66
  L 102.50 368.50
  Q 102.34 369.07 101.75 369.03
  L 100.03 368.93
  Q 99.34 368.88 99.54 368.23
  C 105.57 348.49 89.49 350.43 75.79 351.18
  A 0.68 0.67 6.0 0 0 75.18 351.67
  Q 69.28 371.97 63.54 392.25
  C 62.19 397.01 64.96 398.56 69.21 398.84
  C 93.21 400.45 110.12 397.94 122.38 375.51
  A 1.01 1.00 14.7 0 1 123.28 374.99
  L 124.84 375.02
  A 0.49 0.49 0.0 0 1 125.29 375.67
  L 115.61 403.57
  Q 115.46 404.00 115.00 404.00
  L 34.29 404.00
  Q 33.56 404.00 33.78 403.30
  L 34.38 401.35
  Q 34.55 400.80 35.13 400.87
  C 44.76 401.98 48.33 396.61 51.01 387.50
  Q 60.71 354.55 70.33 321.57
  Q 72.25 314.99 72.96 310.00
  C 74.17 301.57 68.89 300.85 62.13 300.99
  Q 61.45 301.01 61.63 300.34
  L 62.08 298.65
  Q 62.25 298.00 62.92 298.00
  L 137.79 298.00
  A 0.43 0.43 0.0 0 1 138.21 298.54
  L 131.95 322.45
  Q 131.81 322.96 131.28 322.98
  L 130.00 323.01
  Q 129.32 323.03 129.41 322.36
  Q 131.73 304.42 113.68 303.31
  Q 103.09 302.66 89.58 303.11
  Q 89.09 303.13 88.96 303.60
  L 77.00 345.47
  Q 76.87 345.94 77.35 345.95
  Z"
/>
<path fill="#8285a6" d="
  M 351.23 307.65
  Q 350.43 307.38 348.56 307.92
  Q 348.12 308.04 347.96 307.89
  Q 347.79 307.74 347.77 307.40
  A 0.38 0.38 0.0 0 1 348.09 307.00
  L 358.98 305.14
  Q 359.43 305.07 359.30 305.51
  L 351.19 332.82
  A 1.24 1.24 0.0 0 0 353.37 333.92
  L 356.22 330.12
  A 0.76 0.75 19.3 0 1 356.87 329.81
  Q 357.36 329.84 357.46 330.23
  Q 357.51 330.44 357.35 330.70
  Q 354.94 334.57 351.20 337.18
  C 348.12 339.31 344.64 337.05 345.76 333.25
  Q 349.01 322.27 352.72 310.61
  Q 353.43 308.40 351.23 307.65
  Z"
/>
<rect fill="#8285a6" x="371.51" y="311.00" width="35.24" height="3.00" rx="0.42"/>
<rect fill="#8285a6" x="371.50" y="324.00" width="35.24" height="3.00" rx="0.51"/>
<rect fill="#8285a6" x="188.88" y="345.00" width="82.32" height="8.00" rx="0.39"/>
<rect fill="#8285a6" x="1068.86" y="359.00" width="82.38" height="8.00" rx="0.44"/>
<path fill="#8285a6" d="
  M 318.14 366.62
  Q 317.33 366.33 317.16 365.49
  C 316.53 362.31 318.28 362.00 320.90 362.00
  Q 673.66 362.00 1026.41 362.00
  C 1028.89 362.00 1030.66 362.49 1029.77 365.52
  Q 1029.62 366.01 1029.17 366.26
  Q 1027.89 366.99 1025.75 366.99
  Q 673.13 367.01 320.50 366.99
  Q 319.14 366.99 318.14 366.62
  Z"
/>
<rect fill="#8285a6" x="188.87" y="374.00" width="82.38" height="8.00" rx="0.43"/>
<circle fill="#8285a6" cx="1291.49" cy="398.34" r="7.41"/>
<path fill="#8285a6" d="
  M 925.25 445.50
  L 925.25 456.50
  Q 925.25 457.00 924.75 457.00
  L 920.25 457.00
  Q 919.75 457.00 919.75 456.50
  L 919.75 445.50
  A 0.50 0.50 0.0 0 0 919.25 445.00
  L 900.98 445.00
  Q 900.37 445.00 900.29 444.40
  C 900.06 442.75 900.08 441.39 901.07 439.91
  Q 911.26 424.77 921.25 409.52
  Q 921.59 409.00 922.20 409.00
  L 924.75 409.00
  Q 925.25 409.00 925.25 409.50
  L 925.25 440.50
  Q 925.25 441.00 925.75 441.00
  L 930.75 441.00
  Q 931.50 441.00 931.50 441.75
  L 931.50 444.25
  Q 931.50 445.00 930.75 445.00
  L 925.75 445.00
  Q 925.25 445.00 925.25 445.50
  Z
  M 919.75 417.59
  A 0.39 0.39 0.0 0 0 919.03 417.38
  L 903.87 440.40
  A 0.39 0.39 0.0 0 0 904.19 441.00
  L 919.36 441.00
  A 0.39 0.39 0.0 0 0 919.75 440.61
  L 919.75 417.59
  Z"
/>
<path fill="#8285a6" d="
  M 842.51 460.73
  C 837.90 455.55 831.39 449.05 828.76 443.69
  C 822.36 430.68 835.16 420.34 847.00 417.99
  C 854.20 416.57 881.53 415.76 880.76 429.00
  Q 880.49 433.54 876.20 436.39
  C 868.64 441.39 866.17 433.55 863.05 428.63
  C 859.86 423.61 857.49 422.36 851.76 422.04
  Q 841.08 421.45 835.05 428.56
  C 828.96 435.73 837.23 443.31 842.98 447.91
  C 856.39 458.66 871.27 468.31 867.03 487.62
  C 862.22 509.50 838.31 532.11 815.03 530.91
  C 797.39 530.00 789.94 515.48 795.57 499.52
  C 803.26 477.72 820.38 466.51 842.23 461.59
  A 0.53 0.52 -27.2 0 0 842.51 460.73
  Z
  M 808.03 505.95
  C 806.53 513.88 809.20 525.87 819.52 526.04
  C 839.60 526.36 851.53 502.71 852.70 485.29
  C 853.16 478.51 849.17 471.06 845.67 465.57
  Q 845.39 465.13 844.88 465.22
  C 823.24 468.79 811.88 485.51 808.03 505.95
  Z"
/>

<path fill="#8285a6" d="
  M 438.94 562.57
  C 408.20 547.41 393.03 513.10 397.23 479.99
  C 400.45 454.61 415.23 430.35 438.90 419.45
  Q 439.34 419.25 439.43 419.73
  L 439.76 421.34
  A 0.73 0.71 -20.8 0 1 439.41 422.10
  C 422.90 431.51 416.16 447.64 413.37 465.76
  Q 409.14 493.24 414.38 520.19
  C 417.72 537.38 424.69 549.99 439.10 559.60
  Q 439.63 559.94 439.63 560.57
  L 439.62 562.14
  Q 439.62 562.90 438.94 562.57
  Z"
/>
<path fill="#8285a6" d="
  M 736.19 422.56
  Q 734.84 421.61 735.69 419.72
  Q 735.82 419.42 736.12 419.56
  C 770.90 436.37 784.53 476.83 775.75 512.77
  C 770.62 533.75 756.16 553.33 736.10 562.58
  Q 735.50 562.86 735.50 562.19
  L 735.50 560.72
  Q 735.50 560.18 735.96 559.90
  C 755.09 548.17 761.04 528.24 762.93 507.07
  Q 765.34 480.09 759.67 456.57
  Q 754.61 435.58 736.19 422.56
  Z"
/>
<path fill="#8285a6" d="
  M 699.28 446.00
  C 699.28 437.39 697.43 427.90 685.77 434.67
  Q 685.31 434.94 684.94 434.56
  L 684.16 433.78
  A 0.63 0.62 -35.1 0 1 684.34 432.77
  L 709.94 420.90
  A 1.60 1.60 0.0 0 1 712.22 422.40
  Q 711.90 432.26 711.98 442.66
  C 712.16 468.19 712.47 499.44 712.28 517.75
  C 712.20 526.01 718.15 527.25 724.92 526.98
  A 0.56 0.56 0.0 0 1 725.50 527.54
  L 725.50 528.47
  Q 725.50 529.00 724.97 529.00
  L 686.18 529.00
  A 0.40 0.39 -0.7 0 1 685.78 528.62
  L 685.74 527.58
  Q 685.72 526.97 686.33 526.97
  C 693.05 526.97 699.19 526.17 699.21 518.18
  Q 699.29 482.10 699.28 446.00
  Z"
/>
<path fill="#8285a6" d="
  M 472.45 492.22
  A 0.29 0.29 0.0 0 0 472.96 492.47
  C 480.56 481.80 499.24 454.48 514.86 458.37
  C 522.40 460.25 522.61 469.42 520.56 475.90
  Q 513.85 497.10 506.72 518.17
  C 506.10 519.99 505.80 523.15 508.86 522.74
  Q 509.33 522.68 509.68 522.36
  Q 514.38 517.95 517.86 512.50
  A 0.58 0.58 0.0 0 1 518.68 512.34
  L 519.85 513.18
  Q 520.40 513.57 520.02 514.12
  C 516.32 519.64 505.04 534.17 496.95 530.23
  C 491.52 527.59 494.28 519.99 495.90 514.79
  Q 501.08 498.26 506.76 481.88
  C 508.23 477.65 511.34 468.94 506.81 467.12
  C 502.07 465.22 492.55 474.07 489.59 477.39
  Q 476.34 492.25 467.78 510.30
  Q 465.47 515.17 462.05 528.40
  Q 461.89 529.00 461.27 529.00
  L 450.79 529.00
  Q 450.14 529.00 450.32 528.38
  Q 458.37 500.93 466.10 473.47
  C 466.65 471.51 467.55 469.42 467.07 467.48
  C 466.00 463.12 459.98 463.99 456.45 465.04
  A 0.51 0.50 -7.6 0 1 455.80 464.55
  L 455.85 462.60
  Q 455.87 462.06 456.40 461.98
  L 481.69 458.16
  A 0.46 0.46 0.0 0 1 482.20 458.74
  L 472.45 492.22
  Z"
/>
<rect fill="#8285a6" x="563.84" y="484.00" width="82.40" height="8.00" rx="0.48"/>
<path fill="#8285a6" d="
  M 898.59 553.43
  C 898.02 548.84 896.76 539.83 890.07 541.00
  A 1.09 1.08 -4.4 0 1 888.80 539.92
  Q 888.82 539.27 889.76 539.04
  Q 893.63 538.06 897.51 537.12
  Q 898.04 536.99 898.33 537.45
  Q 901.10 541.86 902.21 546.98
  A 0.49 0.49 0.0 0 0 903.14 547.08
  C 904.71 543.70 910.45 534.92 915.17 537.58
  C 918.60 539.51 915.31 545.08 911.54 542.25
  A 2.21 2.20 41.3 0 0 908.68 542.43
  Q 905.34 545.67 903.27 549.85
  Q 903.03 550.34 903.16 550.87
  L 906.68 565.12
  A 1.41 1.40 58.4 0 0 909.11 565.70
  L 912.87 561.33
  A 0.38 0.38 0.0 0 1 913.43 561.31
  L 913.68 561.55
  A 0.30 0.29 37.0 0 1 913.73 561.88
  Q 911.14 566.89 906.33 569.86
  Q 905.85 570.16 905.30 570.03
  C 901.27 569.05 900.39 560.12 899.50 556.68
  Q 899.34 556.08 899.02 556.61
  C 896.87 560.20 891.66 570.13 886.83 569.97
  C 883.18 569.85 882.17 564.45 886.26 563.96
  A 1.44 1.40 60.6 0 1 887.32 564.27
  L 889.30 565.90
  A 1.04 1.04 0.0 0 0 890.75 565.77
  Q 895.17 560.49 898.41 554.41
  Q 898.66 553.95 898.59 553.43
  Z"
/>
</svg>
