<?xml version="1.0" encoding="UTF-8" standalone="no"?>
<!DOCTYPE svg PUBLIC "-//W3C//DTD SVG 1.1//EN" "http://www.w3.org/Graphics/SVG/1.1/DTD/svg11.dtd">
<svg xmlns="http://www.w3.org/2000/svg" version="1.1" viewBox="0.00 0.00 785.00 444.00">
<g stroke-width="2.00" fill="none" stroke-linecap="butt">
<path stroke="#8285a6" vector-effect="non-scaling-stroke" d="
  M 331.00 155.52
  L 331.00 58.74
  Q 331.00 58.27 330.55 58.16
  Q 328.03 57.50 326.73 58.23
  Q 312.23 66.46 297.73 74.71
  Q 297.25 74.99 297.25 75.54
  L 297.25 78.32
  Q 297.25 78.93 297.82 78.72
  L 317.42 71.76
  Q 318.00 71.56 318.00 72.17
  L 318.00 155.53
  Q 318.00 156.07 317.46 156.12
  L 297.48 157.99
  Q 297.00 158.04 297.00 158.52
  L 297.00 161.50
  Q 297.00 162.00 297.50 162.00
  L 351.25 162.00
  Q 352.00 162.00 352.00 161.25
  L 352.00 158.65
  Q 352.00 158.04 351.40 157.98
  L 331.51 156.09
  Q 331.00 156.04 331.00 155.52"
/>
<path stroke="#8285a6" vector-effect="non-scaling-stroke" d="
  M 472.72 68.72
  L 473.78 60.55
  Q 473.86 60.00 473.30 60.00
  L 462.73 60.00
  A 1.06 1.06 0.0 0 0 462.51 62.10
  L 466.28 62.87
  A 0.59 0.58 -79.5 0 1 466.74 63.55
  L 460.13 101.40
  Q 460.02 102.00 460.63 102.00
  L 466.31 102.00
  Q 466.96 102.00 467.08 101.36
  Q 469.20 89.55 471.29 77.74
  Q 471.83 74.69 473.33 72.73
  C 476.70 68.30 493.14 57.84 490.70 72.24
  Q 488.22 86.90 485.55 101.46
  A 0.46 0.46 0.0 0 0 486.00 102.00
  L 497.78 102.00
  A 1.03 1.03 0.0 0 0 497.97 99.96
  L 493.45 99.10
  Q 492.94 99.00 493.03 98.49
  Q 495.54 84.27 497.75 70.00
  C 498.55 64.80 496.43 60.29 490.92 59.30
  C 483.57 57.99 477.66 63.36 473.11 68.89
  Q 472.63 69.47 472.72 68.72"
/>
<path stroke="#8285a6" vector-effect="non-scaling-stroke" d="
  M 66.00 88.31
  A 0.31 0.31 0.0 0 0 65.69 88.00
  L 41.31 88.00
  A 0.31 0.31 0.0 0 0 41.00 88.31
  L 41.00 95.69
  A 0.31 0.31 0.0 0 0 41.31 96.00
  L 65.69 96.00
  A 0.31 0.31 0.0 0 0 66.00 95.69
  L 66.00 88.31"
/>
<path stroke="#8285a6" vector-effect="non-scaling-stroke" d="
  M 414.21 293.97
  A 0.20 0.20 0.0 0 1 414.08 293.61
  L 509.72 211.46
  Q 510.13 211.11 509.86 210.65
  L 464.72 131.54
  Q 464.45 131.07 465.00 131.06
  Q 507.62 130.84 529.94 131.05
  C 535.46 131.10 543.40 132.76 541.42 140.53
  C 540.36 144.68 539.69 148.94 539.01 153.13
  A 0.75 0.75 0.0 0 0 539.75 154.00
  L 550.48 154.00
  Q 550.97 154.00 551.05 153.52
  L 556.48 121.53
  A 0.46 0.45 4.8 0 0 556.03 121.00
  L 436.72 121.00
  Q 436.16 121.00 436.07 121.54
  L 434.20 132.25
  Q 434.12 132.73 434.37 133.16
  L 485.91 221.72
  Q 486.15 222.13 485.79 222.43
  L 402.52 293.64
  Q 402.09 294.02 401.99 294.58
  L 399.07 311.37
  Q 398.96 312.00 399.60 312.00
  L 529.28 312.00
  Q 529.83 312.00 529.92 311.46
  L 536.83 271.68
  Q 536.95 271.00 536.26 271.00
  L 525.51 271.00
  A 0.60 0.60 0.0 0 0 524.92 271.51
  C 522.82 284.98 519.83 293.96 505.00 293.98
  Q 459.57 294.06 414.21 293.97"
/>
<path stroke="#8285a6" vector-effect="non-scaling-stroke" d="
  M 644.49 228.54
  C 643.75 217.84 644.58 204.06 642.24 194.73
  C 639.40 183.40 627.45 186.30 621.65 192.67
  Q 614.56 200.44 612.04 211.45
  Q 611.87 212.17 612.60 212.05
  L 614.12 211.80
  Q 614.59 211.73 614.73 211.27
  C 616.92 204.25 623.45 198.54 631.06 200.37
  C 637.85 202.00 639.03 210.28 639.33 215.99
  Q 639.77 224.33 639.72 232.67
  Q 639.72 233.15 639.38 233.49
  L 582.83 292.19
  Q 582.29 292.75 583.07 292.75
  L 596.26 292.75
  Q 596.88 292.75 597.31 292.30
  L 639.69 248.19
  A 0.32 0.31 66.0 0 1 640.23 248.40
  Q 640.78 263.09 641.35 277.19
  C 641.63 284.04 643.25 294.73 653.36 292.60
  C 662.82 290.61 669.52 278.27 671.13 269.95
  A 1.17 1.17 0.0 0 0 668.91 269.28
  C 666.05 276.14 661.27 282.20 652.80 280.71
  C 647.76 279.82 646.40 272.48 646.14 267.76
  Q 645.50 256.11 645.13 244.32
  Q 645.12 243.82 645.47 243.46
  L 697.65 189.64
  A 0.23 0.23 0.0 0 0 697.49 189.25
  L 683.81 189.25
  Q 683.31 189.25 682.95 189.61
  L 645.04 228.74
  Q 644.54 229.26 644.49 228.54"
/>
<path stroke="#8285a6" vector-effect="non-scaling-stroke" d="
  M 69.65 215.78
  L 58.59 189.51
  Q 58.38 189.00 57.83 189.00
  L 40.46 189.00
  A 1.84 1.84 0.0 0 0 40.23 192.66
  Q 43.53 193.07 46.62 193.88
  Q 47.02 193.98 47.18 194.35
  L 60.52 224.21
  A 0.65 0.65 0.0 0 1 60.37 224.95
  Q 49.43 234.97 38.53 245.03
  C 34.62 248.65 27.37 254.86 29.78 260.52
  A 0.80 0.79 78.1 0 0 30.51 261.00
  L 44.07 261.00
  Q 44.65 261.00 44.72 260.43
  L 45.05 257.79
  A 0.51 0.50 9.1 0 0 44.64 257.23
  C 33.83 255.26 60.66 232.93 62.98 230.79
  Q 63.40 230.41 63.62 230.92
  L 76.48 260.50
  Q 76.69 261.00 77.24 261.00
  L 95.82 261.00
  Q 96.31 261.00 96.38 260.51
  L 96.72 258.20
  Q 96.80 257.61 96.21 257.50
  L 88.58 256.16
  A 1.14 1.12 82.3 0 1 87.75 255.52
  L 72.89 222.67
  Q 72.70 222.24 73.05 221.93
  Q 83.10 212.67 92.89 203.14
  C 95.81 200.31 101.76 194.17 99.05 189.58
  A 1.02 1.02 0.0 0 0 98.24 189.10
  Q 91.77 188.78 86.40 189.05
  A 2.33 1.65 -36.8 0 0 85.16 192.90
  Q 87.36 192.89 88.51 194.87
  A 2.43 2.41 41.5 0 1 88.65 197.01
  C 86.05 203.21 75.57 211.59 70.31 215.94
  Q 69.87 216.31 69.65 215.78"
/>
<path stroke="#8285a6" vector-effect="non-scaling-stroke" d="
  M 251.74 190.77
  A 0.26 0.26 0.0 0 0 251.48 190.51
  L 161.26 190.51
  A 0.26 0.26 0.0 0 0 161.00 190.77
  L 161.00 200.03
  A 0.26 0.26 0.0 0 0 161.26 200.29
  L 251.48 200.29
  A 0.26 0.26 0.0 0 0 251.74 200.03
  L 251.74 190.77"
/>
<path stroke="#8285a6" vector-effect="non-scaling-stroke" d="
  M 271.44 220.19
  Q 268.87 223.38 272.47 225.75
  Q 272.86 226.00 273.32 226.00
  Q 322.54 226.00 371.75 226.00
  C 375.96 226.00 375.66 219.62 370.97 218.51
  C 367.43 217.68 363.48 218.29 360.88 218.26
  Q 319.93 217.78 278.99 218.09
  C 276.14 218.11 273.26 217.92 271.44 220.19"
/>
<path stroke="#8285a6" vector-effect="non-scaling-stroke" d="
  M 251.74 229.26
  A 0.50 0.50 0.0 0 0 251.24 228.76
  L 161.50 228.76
  A 0.50 0.50 0.0 0 0 161.00 229.26
  L 161.00 238.00
  A 0.50 0.50 0.0 0 0 161.50 238.50
  L 251.24 238.50
  A 0.50 0.50 0.0 0 0 251.74 238.00
  L 251.74 229.26"
/>
<path stroke="#8285a6" vector-effect="non-scaling-stroke" d="
  M 706.74 278.98
  L 714.01 237.58
  Q 714.12 237.00 713.53 237.00
  L 701.72 237.00
  Q 701.12 237.00 700.95 237.58
  L 700.75 238.25
  Q 700.56 238.91 701.24 239.03
  L 706.09 239.87
  Q 706.70 239.97 706.60 240.58
  L 696.15 299.31
  Q 696.03 300.00 696.73 300.00
  L 702.49 300.00
  Q 702.97 300.00 703.06 299.52
  L 705.55 285.43
  Q 705.64 284.90 706.03 284.52
  L 711.64 279.02
  Q 712.13 278.54 712.41 279.17
  L 721.55 299.42
  Q 721.81 300.00 722.45 300.00
  L 731.24 300.00
  A 1.10 1.10 0.0 0 0 731.49 297.83
  L 728.46 297.13
  Q 727.96 297.02 727.74 296.55
  L 717.40 274.07
  Q 717.19 273.63 717.54 273.28
  L 729.86 261.04
  A 1.44 1.43 -70.9 0 1 730.70 260.63
  Q 732.41 260.42 733.75 259.34
  A 0.75 0.75 0.0 0 0 733.28 258.00
  L 721.55 258.00
  A 1.01 1.01 0.0 0 0 721.26 259.97
  L 724.04 260.81
  Q 724.76 261.02 724.24 261.57
  L 707.20 279.22
  Q 706.58 279.85 706.74 278.98"
/>
<path stroke="#8285a6" vector-effect="non-scaling-stroke" d="
  M 302.69 317.53
  L 291.13 383.43
  Q 291.03 384.00 291.61 384.00
  L 303.48 384.00
  Q 303.96 384.00 304.04 383.52
  Q 307.95 361.10 311.91 338.69
  C 314.15 326.00 347.12 304.78 342.41 332.43
  Q 338.06 357.99 333.54 383.45
  A 0.47 0.47 0.0 0 0 334.00 384.00
  L 356.40 384.00
  A 0.54 0.54 0.0 0 0 356.93 383.54
  L 357.24 381.28
  Q 357.31 380.73 356.76 380.63
  L 347.77 379.12
  Q 347.24 379.03 347.33 378.49
  Q 351.41 355.26 355.42 332.03
  C 357.18 321.83 354.78 311.06 342.35 310.26
  C 330.63 309.50 321.61 317.16 314.58 325.76
  A 0.36 0.36 0.0 0 1 313.95 325.49
  L 315.71 312.77
  Q 315.81 312.00 315.03 312.00
  L 294.83 312.00
  Q 294.40 312.00 294.31 312.43
  L 293.82 314.72
  Q 293.71 315.20 294.20 315.29
  L 302.22 316.85
  Q 302.79 316.96 302.69 317.53"
/>
<path stroke="#8285a6" vector-effect="non-scaling-stroke" d="
  M 426.71 389.94
  L 434.03 348.70
  Q 434.16 348.00 433.45 348.00
  L 421.72 348.00
  Q 421.12 348.00 420.95 348.58
  L 420.72 349.37
  Q 420.56 349.93 421.13 350.02
  L 426.12 350.84
  Q 426.70 350.94 426.60 351.51
  L 416.16 410.31
  Q 416.04 411.00 416.73 411.00
  L 422.33 411.00
  Q 422.99 411.00 423.10 410.35
  L 425.56 396.31
  Q 425.64 395.86 425.96 395.55
  L 431.64 390.03
  Q 432.11 389.57 432.39 390.17
  L 441.59 410.43
  Q 441.84 411.00 442.47 411.00
  L 451.25 411.00
  A 1.12 1.12 0.0 0 0 451.49 408.79
  L 448.47 408.14
  A 1.02 1.01 -5.9 0 1 447.77 407.58
  L 437.40 385.08
  Q 437.17 384.58 437.56 384.20
  Q 443.33 378.51 449.09 372.79
  C 450.41 371.47 451.71 371.42 453.36 370.74
  A 0.90 0.90 0.0 0 0 453.02 369.00
  L 441.76 369.00
  A 1.05 1.05 0.0 0 0 441.47 371.05
  L 444.13 371.82
  A 0.41 0.41 0.0 0 1 444.31 372.50
  L 427.20 390.19
  Q 426.54 390.87 426.71 389.94"
/>
<path stroke="#8285a6" vector-effect="non-scaling-stroke" d="
  M 531.00 359.30
  L 531.00 406.67
  A 0.49 0.48 -3.3 0 1 530.57 407.15
  L 519.33 408.28
  Q 518.75 408.34 518.75 408.92
  L 518.75 410.50
  Q 518.75 411.00 519.25 411.00
  L 550.64 411.00
  A 0.59 0.58 87.3 0 0 551.22 410.36
  L 551.09 408.99
  Q 551.03 408.37 550.42 408.31
  L 539.53 407.13
  Q 539.00 407.07 539.00 406.54
  L 539.00 352.22
  A 1.40 1.40 0.0 0 0 536.95 350.98
  Q 527.93 355.70 519.84 360.25
  C 518.97 360.74 518.66 361.51 519.09 362.40
  Q 519.31 362.85 519.78 362.68
  L 530.39 358.87
  Q 531.00 358.65 531.00 359.30"
/>
<path stroke="#8285a6" vector-effect="non-scaling-stroke" d="
  M 528.43 370.61
  A 0.36 0.36 0.0 0 0 528.07 370.25
  L 476.11 370.25
  A 0.36 0.36 0.0 0 0 475.75 370.61
  L 475.75 375.39
  A 0.36 0.36 0.0 0 0 476.11 375.75
  L 528.07 375.75
  A 0.36 0.36 0.0 0 0 528.43 375.39
  L 528.43 370.61"
/>
<path stroke="#8285a6" vector-effect="non-scaling-stroke" d="
  M 528.33 392.76
  A 0.28 0.28 0.0 0 0 528.05 392.48
  L 476.05 392.48
  A 0.28 0.28 0.0 0 0 475.77 392.76
  L 475.77 397.72
  A 0.28 0.28 0.0 0 0 476.05 398.00
  L 528.05 398.00
  A 0.28 0.28 0.0 0 0 528.33 397.72
  L 528.33 392.76"
/>
</g>

<path fill="#8285a6" d="
  M 331.51 156.09
  L 351.40 157.98
  Q 352.00 158.04 352.00 158.65
  L 352.00 161.25
  Q 352.00 162.00 351.25 162.00
  L 297.50 162.00
  Q 297.00 162.00 297.00 161.50
  L 297.00 158.52
  Q 297.00 158.04 297.48 157.99
  L 317.46 156.12
  Q 318.00 156.07 318.00 155.53
  L 318.00 72.17
  Q 318.00 71.56 317.42 71.76
  L 297.82 78.72
  Q 297.25 78.93 297.25 78.32
  L 297.25 75.54
  Q 297.25 74.99 297.73 74.71
  Q 312.23 66.46 326.73 58.23
  Q 328.03 57.50 330.55 58.16
  Q 331.00 58.27 331.00 58.74
  L 331.00 155.52
  Q 331.00 156.04 331.51 156.09
  Z"
/>
<path fill="#8285a6" d="
  M 473.11 68.89
  C 477.66 63.36 483.57 57.99 490.92 59.30
  C 496.43 60.29 498.55 64.80 497.75 70.00
  Q 495.54 84.27 493.03 98.49
  Q 492.94 99.00 493.45 99.10
  L 497.97 99.96
  A 1.03 1.03 0.0 0 1 497.78 102.00
  L 486.00 102.00
  A 0.46 0.46 0.0 0 1 485.55 101.46
  Q 488.22 86.90 490.70 72.24
  C 493.14 57.84 476.70 68.30 473.33 72.73
  Q 471.83 74.69 471.29 77.74
  Q 469.20 89.55 467.08 101.36
  Q 466.96 102.00 466.31 102.00
  L 460.63 102.00
  Q 460.02 102.00 460.13 101.40
  L 466.74 63.55
  A 0.59 0.58 -79.5 0 0 466.28 62.87
  L 462.51 62.10
  A 1.06 1.06 0.0 0 1 462.73 60.00
  L 473.30 60.00
  Q 473.86 60.00 473.78 60.55
  L 472.72 68.72
  Q 472.63 69.47 473.11 68.89
  Z"
/>
<rect fill="#8285a6" x="41.00" y="88.00" width="25.00" height="8.00" rx="0.31"/>
<path fill="#8285a6" d="
  M 414.21 293.97
  Q 459.57 294.06 505.00 293.98
  C 519.83 293.96 522.82 284.98 524.92 271.51
  A 0.60 0.60 0.0 0 1 525.51 271.00
  L 536.26 271.00
  Q 536.95 271.00 536.83 271.68
  L 529.92 311.46
  Q 529.83 312.00 529.28 312.00
  L 399.60 312.00
  Q 398.96 312.00 399.07 311.37
  L 401.99 294.58
  Q 402.09 294.02 402.52 293.64
  L 485.79 222.43
  Q 486.15 222.13 485.91 221.72
  L 434.37 133.16
  Q 434.12 132.73 434.20 132.25
  L 436.07 121.54
  Q 436.16 121.00 436.72 121.00
  L 556.03 121.00
  A 0.46 0.45 4.8 0 1 556.48 121.53
  L 551.05 153.52
  Q 550.97 154.00 550.48 154.00
  L 539.75 154.00
  A 0.75 0.75 0.0 0 1 539.01 153.13
  C 539.69 148.94 540.36 144.68 541.42 140.53
  C 543.40 132.76 535.46 131.10 529.94 131.05
  Q 507.62 130.84 465.00 131.06
  Q 464.45 131.07 464.72 131.54
  L 509.86 210.65
  Q 510.13 211.11 509.72 211.46
  L 414.08 293.61
  A 0.20 0.20 0.0 0 0 414.21 293.97
  Z"
/>
<path fill="#8285a6" d="
  M 645.04 228.74
  L 682.95 189.61
  Q 683.31 189.25 683.81 189.25
  L 697.49 189.25
  A 0.23 0.23 0.0 0 1 697.65 189.64
  L 645.47 243.46
  Q 645.12 243.82 645.13 244.32
  Q 645.50 256.11 646.14 267.76
  C 646.40 272.48 647.76 279.82 652.80 280.71
  C 661.27 282.20 666.05 276.14 668.91 269.28
  A 1.17 1.17 0.0 0 1 671.13 269.95
  C 669.52 278.27 662.82 290.61 653.36 292.60
  C 643.25 294.73 641.63 284.04 641.35 277.19
  Q 640.78 263.09 640.23 248.40
  A 0.32 0.31 66.0 0 0 639.69 248.19
  L 597.31 292.30
  Q 596.88 292.75 596.26 292.75
  L 583.07 292.75
  Q 582.29 292.75 582.83 292.19
  L 639.38 233.49
  Q 639.72 233.15 639.72 232.67
  Q 639.77 224.33 639.33 215.99
  C 639.03 210.28 637.85 202.00 631.06 200.37
  C 623.45 198.54 616.92 204.25 614.73 211.27
  Q 614.59 211.73 614.12 211.80
  L 612.60 212.05
  Q 611.87 212.17 612.04 211.45
  Q 614.56 200.44 621.65 192.67
  C 627.45 186.30 639.40 183.40 642.24 194.73
  C 644.58 204.06 643.75 217.84 644.49 228.54
  Q 644.54 229.26 645.04 228.74
  Z"
/>
<path fill="#8285a6" d="
  M 70.31 215.94
  C 75.57 211.59 86.05 203.21 88.65 197.01
  A 2.43 2.41 41.5 0 0 88.51 194.87
  Q 87.36 192.89 85.16 192.90
  A 2.33 1.65 -36.8 0 1 86.40 189.05
  Q 91.77 188.78 98.24 189.10
  A 1.02 1.02 0.0 0 1 99.05 189.58
  C 101.76 194.17 95.81 200.31 92.89 203.14
  Q 83.10 212.67 73.05 221.93
  Q 72.70 222.24 72.89 222.67
  L 87.75 255.52
  A 1.14 1.12 82.3 0 0 88.58 256.16
  L 96.21 257.50
  Q 96.80 257.61 96.72 258.20
  L 96.38 260.51
  Q 96.31 261.00 95.82 261.00
  L 77.24 261.00
  Q 76.69 261.00 76.48 260.50
  L 63.62 230.92
  Q 63.40 230.41 62.98 230.79
  C 60.66 232.93 33.83 255.26 44.64 257.23
  A 0.51 0.50 9.1 0 1 45.05 257.79
  L 44.72 260.43
  Q 44.65 261.00 44.07 261.00
  L 30.51 261.00
  A 0.80 0.79 78.1 0 1 29.78 260.52
  C 27.37 254.86 34.62 248.65 38.53 245.03
  Q 49.43 234.97 60.37 224.95
  A 0.65 0.65 0.0 0 0 60.52 224.21
  L 47.18 194.35
  Q 47.02 193.98 46.62 193.88
  Q 43.53 193.07 40.23 192.66
  A 1.84 1.84 0.0 0 1 40.46 189.00
  L 57.83 189.00
  Q 58.38 189.00 58.59 189.51
  L 69.65 215.78
  Q 69.87 216.31 70.31 215.94
  Z"
/>
<rect fill="#8285a6" x="161.00" y="190.51" width="90.74" height="9.78" rx="0.26"/>
<path fill="#8285a6" d="
  M 271.44 220.19
  C 273.26 217.92 276.14 218.11 278.99 218.09
  Q 319.93 217.78 360.88 218.26
  C 363.48 218.29 367.43 217.68 370.97 218.51
  C 375.66 219.62 375.96 226.00 371.75 226.00
  Q 322.54 226.00 273.32 226.00
  Q 272.86 226.00 272.47 225.75
  Q 268.87 223.38 271.44 220.19
  Z"
/>
<rect fill="#8285a6" x="161.00" y="228.76" width="90.74" height="9.74" rx="0.50"/>
<path fill="#8285a6" d="
  M 707.20 279.22
  L 724.24 261.57
  Q 724.76 261.02 724.04 260.81
  L 721.26 259.97
  A 1.01 1.01 0.0 0 1 721.55 258.00
  L 733.28 258.00
  A 0.75 0.75 0.0 0 1 733.75 259.34
  Q 732.41 260.42 730.70 260.63
  A 1.44 1.43 -70.9 0 0 729.86 261.04
  L 717.54 273.28
  Q 717.19 273.63 717.40 274.07
  L 727.74 296.55
  Q 727.96 297.02 728.46 297.13
  L 731.49 297.83
  A 1.10 1.10 0.0 0 1 731.24 300.00
  L 722.45 300.00
  Q 721.81 300.00 721.55 299.42
  L 712.41 279.17
  Q 712.13 278.54 711.64 279.02
  L 706.03 284.52
  Q 705.64 284.90 705.55 285.43
  L 703.06 299.52
  Q 702.97 300.00 702.49 300.00
  L 696.73 300.00
  Q 696.03 300.00 696.15 299.31
  L 706.60 240.58
  Q 706.70 239.97 706.09 239.87
  L 701.24 239.03
  Q 700.56 238.91 700.75 238.25
  L 700.95 237.58
  Q 701.12 237.00 701.72 237.00
  L 713.53 237.00
  Q 714.12 237.00 714.01 237.58
  L 706.74 278.98
  Q 706.58 279.85 707.20 279.22
  Z"
/>
<path fill="#8285a6" d="
  M 302.22 316.85
  L 294.20 315.29
  Q 293.71 315.20 293.82 314.72
  L 294.31 312.43
  Q 294.40 312.00 294.83 312.00
  L 315.03 312.00
  Q 315.81 312.00 315.71 312.77
  L 313.95 325.49
  A 0.36 0.36 0.0 0 0 314.58 325.76
  C 321.61 317.16 330.63 309.50 342.35 310.26
  C 354.78 311.06 357.18 321.83 355.42 332.03
  Q 351.41 355.26 347.33 378.49
  Q 347.24 379.03 347.77 379.12
  L 356.76 380.63
  Q 357.31 380.73 357.24 381.28
  L 356.93 383.54
  A 0.54 0.54 0.0 0 1 356.40 384.00
  L 334.00 384.00
  A 0.47 0.47 0.0 0 1 333.54 383.45
  Q 338.06 357.99 342.41 332.43
  C 347.12 304.78 314.15 326.00 311.91 338.69
  Q 307.95 361.10 304.04 383.52
  Q 303.96 384.00 303.48 384.00
  L 291.61 384.00
  Q 291.03 384.00 291.13 383.43
  L 302.69 317.53
  Q 302.79 316.96 302.22 316.85
  Z"
/>
<path fill="#8285a6" d="
  M 427.20 390.19
  L 444.31 372.50
  A 0.41 0.41 0.0 0 0 444.13 371.82
  L 441.47 371.05
  A 1.05 1.05 0.0 0 1 441.76 369.00
  L 453.02 369.00
  A 0.90 0.90 0.0 0 1 453.36 370.74
  C 451.71 371.42 450.41 371.47 449.09 372.79
  Q 443.33 378.51 437.56 384.20
  Q 437.17 384.58 437.40 385.08
  L 447.77 407.58
  A 1.02 1.01 -5.9 0 0 448.47 408.14
  L 451.49 408.79
  A 1.12 1.12 0.0 0 1 451.25 411.00
  L 442.47 411.00
  Q 441.84 411.00 441.59 410.43
  L 432.39 390.17
  Q 432.11 389.57 431.64 390.03
  L 425.96 395.55
  Q 425.64 395.86 425.56 396.31
  L 423.10 410.35
  Q 422.99 411.00 422.33 411.00
  L 416.73 411.00
  Q 416.04 411.00 416.16 410.31
  L 426.60 351.51
  Q 426.70 350.94 426.12 350.84
  L 421.13 350.02
  Q 420.56 349.93 420.72 349.37
  L 420.95 348.58
  Q 421.12 348.00 421.72 348.00
  L 433.45 348.00
  Q 434.16 348.00 434.03 348.70
  L 426.71 389.94
  Q 426.54 390.87 427.20 390.19
  Z"
/>
<path fill="#8285a6" d="
  M 530.39 358.87
  L 519.78 362.68
  Q 519.31 362.85 519.09 362.40
  C 518.66 361.51 518.97 360.74 519.84 360.25
  Q 527.93 355.70 536.95 350.98
  A 1.40 1.40 0.0 0 1 539.00 352.22
  L 539.00 406.54
  Q 539.00 407.07 539.53 407.13
  L 550.42 408.31
  Q 551.03 408.37 551.09 408.99
  L 551.22 410.36
  A 0.59 0.58 87.3 0 1 550.64 411.00
  L 519.25 411.00
  Q 518.75 411.00 518.75 410.50
  L 518.75 408.92
  Q 518.75 408.34 519.33 408.28
  L 530.57 407.15
  A 0.49 0.48 -3.3 0 0 531.00 406.67
  L 531.00 359.30
  Q 531.00 358.65 530.39 358.87
  Z"
/>
<rect fill="#8285a6" x="475.75" y="370.25" width="52.68" height="5.50" rx="0.36"/>
<rect fill="#8285a6" x="475.77" y="392.48" width="52.56" height="5.52" rx="0.28"/>
</svg>
